<svg xmlns="http://www.w3.org/2000/svg" width="30" height="20" viewBox="0 0 30 20">
  <g id="chi" transform="translate(-216 -2281.307)">
    <rect id="Rectangle_1377" data-name="Rectangle 1377" width="30" height="20" transform="translate(216 2281.307)" fill="#f0f0f0"/>
    <path id="Tracé_2814" data-name="Tracé 2814" d="M659.163,209.43c.161.143.391.44.7.407a.752.752,0,0,0,.621-.473c.081-.228.23-.306.25-.369s-.02-.139.041-.122a.746.746,0,0,0,.253-.006c.081-.012.063-.055.145-.08a1.555,1.555,0,0,0,.234-.057c.063-.033.339.115.5.119a.33.33,0,0,1,.287.137.358.358,0,0,0,.395.087.662.662,0,0,0,.446-.41,2.235,2.235,0,0,0,.117-1.024c-.082-.161-.041-.212-.071-.316s-.047-.173.024-.122a1.58,1.58,0,0,0,.46.273c.12.01.143-.029.222.014s.291.1.383.033.336.033.4.045.237-.059.3-.022.084.016.13.043.06.081.114.035.088.032.142,0,.082-.049.143-.019a1.611,1.611,0,0,0,.239.04c.065.019.084.057.144.056a1.238,1.238,0,0,1,.27-.012,3.6,3.6,0,0,0,.371-.006c.063,0,.105-.049.182-.033s.249-.032.362-.031.2-.081.261-.094.108.031.214-.006.086,0,.139.019.153-.031.214-.066a3.263,3.263,0,0,1,.288-.177.851.851,0,0,1,.389-.094c.114.006.189-.006.273.006s.312-.114.416-.135a1.2,1.2,0,0,0,.355-.092,5.933,5.933,0,0,0,.618-.305,1.47,1.47,0,0,1,.3-.147,1.322,1.322,0,0,0,.216-.234c.067-.075.107-.062.115-.116s.012-.074.1-.04.063.017.13.017.1.032.14,0,.058-.077.113-.09a.424.424,0,0,0,.146-.04c.043-.028.063-.008.122-.026s.046-.025.1-.062.047-.044.065-.084.071,0,.115-.032.03-.066.071-.12.063-.024.12-.045.051-.04.1-.048.105.009.159-.034a.658.658,0,0,1,.15-.118c.052-.018.1.035.14.025s.054-.036.09-.05.075.02.127-.011.034-.065.054-.1.044-.016.106-.019.164-.1.215-.117.07,0,.113-.019.075-.049.1-.05-.044.053-.064.089-.013.078-.033.108,0,.147-.044.189-.14.027-.175.038-.031.034-.05.051-.044.009-.11.028a1.951,1.951,0,0,0-.5.261c-.051.072-.045.092-.082.1s-.013.086-.059.136a.491.491,0,0,1-.161.136,1.152,1.152,0,0,0-.331.193c-.088.089-.156.2-.242.227a6.24,6.24,0,0,0-.651.3c-.163.092-.6.405-.67.623s-.075.209-.21.24-.174-.035-.295-.017-.181,0-.267.117a2.559,2.559,0,0,1-.146.214.923.923,0,0,0-.15.4.523.523,0,0,0,.034.262c.025.057,0,.064-.029.1s.008.029.036.032.091.089.139.165.123.116.155.166a.952.952,0,0,0,.126.208,2.886,2.886,0,0,0,.325.279c.082.043.2.311.259.361s.039.082.022.1,0,.077.035.095.07.007.08.039-.035.068-.053.042-.039-.03-.088-.024-.109-.059-.167-.081a.707.707,0,0,1-.121-.053c-.037-.022-.051-.009-.107-.018a.26.26,0,0,0-.113.006c-.055.008-.078-.039-.131-.037s-.018.035-.089.063-.117,0-.208.031-.1.1-.145.124a1.371,1.371,0,0,1-.182.1c-.053.016-.159-.119-.262-.167a.5.5,0,0,0-.295-.076,2.16,2.16,0,0,0-.479,0,.477.477,0,0,0-.268.18.749.749,0,0,0-.078.279.879.879,0,0,1-.011.208.436.436,0,0,1-.091.238c-.067.071-.06.12-.1.181s-.132-.01-.276.02-.132.053-.174.112a.3.3,0,0,1-.084.083c-.026.023-.063,0-.105.034s-.011.05-.08.072-.13-.018-.2.009a.871.871,0,0,0-.192.124c-.1.07-.177.024-.23.083s-.086.094-.13.1-.061-.012-.108.023-.1.027-.164.058-.108-.029-.19-.018-.108.061-.152.1-.059.019-.107.027-.405-.04-.491-.041a1.292,1.292,0,0,0-.495.09.627.627,0,0,0-.275.182c-.061.072-.133.056-.185.145a.644.644,0,0,0-.066.257c-.017.1.107.224.145.268s.029.123-.039.094-.072-.087-.141-.06-.082-.046-.122-.024-.056.07-.1.054a.118.118,0,0,0-.124.008c-.045.031-.06,0-.033-.051a.114.114,0,0,0-.015-.159c-.061-.049-.07-.184-.124-.244s-.088-.073-.075-.111-.019-.03-.054-.042-.056-.072-.1-.086a.343.343,0,0,0-.135-.022c-.049,0-.073.044-.135.011s-.064-.011-.121.021-.077-.02-.142,0-.119.005-.164.032-.068.1-.132.1-.068-.036-.118-.014-.086.067-.125.044a1.252,1.252,0,0,0-.329-.116.757.757,0,0,1-.328-.153.717.717,0,0,0-.3-.136.573.573,0,0,1-.153-.019c-.028-.016-.046-.082-.1-.054s-.063.06-.086.042-.033-.05-.076-.061-.111-.122-.158-.14a.357.357,0,0,0-.115-.037c-.043,0-.041-.056-.082-.092s-.1-.009-.119-.029-.016-.057-.01-.111a.482.482,0,0,0-.037-.155c-.013-.059,0-.09-.02-.132a.282.282,0,0,1-.038-.137.108.108,0,0,0-.059-.107.436.436,0,0,1-.1-.055c-.02-.018-.1.011-.128-.077a.289.289,0,0,0-.126-.152c-.041-.031-.067-.033-.005-.159s-.017-.148-.066-.241-.029-.042,0-.141a.221.221,0,0,0-.009-.2c-.031-.044-.058-.225-.15-.309a.284.284,0,0,1-.1-.281c.022-.1.063-.211.136-.154" transform="translate(-434.777 2080.368)" fill="#f39229" fill-rule="evenodd"/>
    <path id="Tracé_2815" data-name="Tracé 2815" d="M664.329,249.825s.311-.02.6.458.179.483.159.473a2.524,2.524,0,0,1-.631-.373.826.826,0,0,1-.13-.558m7.024,2.211c.005.2-.116.277-.172.222s-.033-.166.172-.222m-.36.122s-.538-.049-.854.666c0,0,.805-.086.854-.666m.339.881s-.224-.391-1.082.014a1.1,1.1,0,0,0,1.082-.014m.415-.273c-.236.055-.233.2-.168.234s.2-.024.168-.234m0-.31s-.354-.2-.921.247c0,0,.85.124.921-.247m1.163-.012c-.292-.062-.984-.1-1.02.143s.96.011,1.02-.143m-.517-.831a1.006,1.006,0,0,1-.822.571s.223-.679.822-.571m1.18-.86a1.9,1.9,0,0,1-.731.838s.22-.937.731-.838m-.839.72c0,.211-.111.275-.174.218s0-.23.174-.218m.283.3s-.073.418-.931.456c0,0,.546-.587.931-.456m.016.325c0,.133-.056.241-.13.2s.032-.211.13-.2m1.105-.385a1.041,1.041,0,0,0-1.017.258s.85.169,1.017-.258m-.019-.35c-.149-.018-.333.049-.311.157s.332.025.311-.157m-.152-.447s-.432.016-.711.693c0,0,.707-.22.711-.693m.86-.153s0,.516-.733.407c0,0,.006-.373.733-.407m-.8-.722a1.882,1.882,0,0,1-.071.5,1.583,1.583,0,0,1-.133.228s-.134-.623.2-.723m.866-.22s-.31-.02-.6.458-.179.483-.159.473a2.521,2.521,0,0,0,.631-.373.825.825,0,0,0,.13-.558m-5.663,3.208.084-.092.3.134.3-.134.083.094-.169.084.422.308-.247.236-.389-.485-.383.483-.261-.247.44-.3Zm-1.361-1c-.005.2.116.277.172.222s.033-.166-.172-.222m.36.122s.538-.049.854.666c0,0-.805-.086-.854-.666m-.339.881s.224-.391,1.082.014a1.1,1.1,0,0,1-1.082-.014m-.415-.273c.236.055.233.2.168.234s-.2-.024-.168-.234m0-.31s.354-.2.921.247c0,0-.851.124-.921-.247m-1.163-.012c.292-.062.984-.1,1.02.143s-.96.011-1.02-.143m.518-.831a1.006,1.006,0,0,0,.822.571s-.223-.679-.822-.571m-1.18-.86a1.894,1.894,0,0,0,.731.838s-.22-.937-.731-.838m.839.72c0,.211.112.275.174.218s0-.23-.174-.218m-.283.3s.073.418.931.456c0,0-.546-.587-.931-.456m-.016.325c0,.133.056.241.13.2s-.033-.211-.13-.2m-1.105-.385a1.041,1.041,0,0,1,1.018.258s-.851.169-1.018-.258m.019-.35c.149-.018.333.049.311.157s-.332.025-.311-.157m.152-.447s.432.016.711.693c0,0-.707-.22-.711-.693m-.86-.153s0,.516.733.407c0,0-.006-.373-.733-.407m.8-.722a1.874,1.874,0,0,0,.071.5,1.623,1.623,0,0,0,.133.228s.134-.623-.2-.723" transform="translate(-439.143 2043.548)" fill="#40ab19" fill-rule="evenodd"/>
  </g>
</svg>
