<svg xmlns="http://www.w3.org/2000/svg" width="30" height="20" viewBox="0 0 30 20">
  <g id="gre" transform="translate(-151.961 -2490.066)">
    <path id="Tracé_5203" data-name="Tracé 5203" d="M612.283,382.834h30v-2.222h-30Zm30-6.667h-30v2.222h30Zm0-2.222v-2.222H623.394V369.5h18.889v-2.222H623.394v-2.222h18.889v-2.222H618.95v4.444h4.444V369.5H618.95v4.444Zm-25.556-11.111h-4.444v4.444h4.444Zm-4.444,11.111h4.444V369.5h-4.444Z" transform="translate(-460.322 2127.232)" fill="#207bf2" fill-rule="evenodd"/>
    <path id="Tracé_5204" data-name="Tracé 5204" d="M616.727,362.834h2.222v4.444h4.444V369.5H618.95v4.444h23.333v2.222h-30v-2.222h4.444V369.5h-4.444v-2.222h4.444Zm6.667,2.222h18.889v2.222H623.394Zm0,4.445h18.889v2.222H623.394Zm-11.111,4.444v0Zm0,4.445h30v2.222h-30Z" transform="translate(-460.322 2127.232)" fill="#f0f0f0" fill-rule="evenodd"/>
  </g>
</svg>
