<svg xmlns="http://www.w3.org/2000/svg" width="30" height="20" viewBox="0 0 30 20">
  <g id="mal" transform="translate(-265.922 -2079.215)">
    <rect id="Rectangle_1331" data-name="Rectangle 1331" width="15" height="20" transform="translate(280.922 2079.215)" fill="#ff1612"/>
    <rect id="Rectangle_1332" data-name="Rectangle 1332" width="15" height="20" transform="translate(265.922 2079.215)" fill="#f0f0f0"/>
    <path id="Tracé_1848" data-name="Tracé 1848" d="M1234.127,550.967h1.352V552.6a.728.728,0,0,1,.509.513h1.64v1.352h-1.638a.728.728,0,0,1-.511.522v1.627h-1.352v-1.628a.728.728,0,0,1-.509-.521h-1.64v-1.352h1.642a.727.727,0,0,1,.507-.512Z" transform="translate(-964.749 1529.433)" fill="#ccc" fill-rule="evenodd"/>
    <path id="Tracé_1849" data-name="Tracé 1849" d="M1234.127,550.967h1.352V552.6a.728.728,0,0,1,.509.513h1.64v1.352h-1.638a.728.728,0,0,1-.511.522v1.627h-1.352v-1.628a.728.728,0,0,1-.509-.521h-1.64v-1.352h1.642a.727.727,0,0,1,.507-.512Z" transform="translate(-964.749 1529.433)" fill="none" stroke="red" stroke-miterlimit="2.414" stroke-width="1.614"/>
    <path id="Tracé_1850" data-name="Tracé 1850" d="M1234.127,550.967h1.352V552.6a.728.728,0,0,1,.509.513h1.64v1.352h-1.638a.728.728,0,0,1-.511.522v1.627h-1.352v-1.628a.728.728,0,0,1-.509-.521h-1.64v-1.352h1.642a.727.727,0,0,1,.507-.512Z" transform="translate(-964.749 1529.433)" fill="#ccc" fill-rule="evenodd"/>
    <path id="Tracé_1851" data-name="Tracé 1851" d="M1234.127,550.967h1.352V552.6a.728.728,0,0,1,.509.513h1.64v1.352h-1.638a.728.728,0,0,1-.511.522v1.627h-1.352v-1.628a.728.728,0,0,1-.509-.521h-1.64v-1.352h1.642a.727.727,0,0,1,.507-.512Z" transform="translate(-964.749 1529.433)" fill="none" stroke="#96877d" stroke-miterlimit="2.414" stroke-width="0.282"/>
    <path id="Tracé_1852" data-name="Tracé 1852" d="M1244.159,564.062h.926l.067-.055-.124-.073s.015-.006.019-.013.033,0,.038-.019c0,0,.1.091.17,0l-.036-.038s0,.1-.075.025a.345.345,0,0,0,.076-.083c.02-.038.032-.071.056-.072s.014-.014,0-.024a.359.359,0,0,0-.034-.025c-.011-.007-.022,0-.028.012a.092.092,0,0,0-.012.046c0,.02-.013.028-.025.04a.47.47,0,0,1-.059.039.115.115,0,0,0-.025-.062c-.023-.025-.046-.07-.032-.083s.048.028.071.034a.071.071,0,0,0,.071-.025.11.11,0,0,0,.023-.043l.047.022,0-.031.04.006-.021-.023.019-.013h-.042s.012-.02-.029-.02a.3.3,0,0,0-.041-.062.068.068,0,0,0-.032-.008s-.015-.065-.028-.058a.269.269,0,0,0-.044.047c-.009.009-.006.051.05.067a.132.132,0,0,1-.081-.023.16.16,0,0,0,.025.036s-.011.019.019.023.031,0,.034.01.01.016.02.025a.019.019,0,0,1,0,.031c-.011.009-.025,0-.042-.009s-.063-.056-.092-.041a.045.045,0,0,0-.026.059.3.3,0,0,0,.039.061s-.023.011-.027.019a.2.2,0,0,0-.031-.04.468.468,0,0,1,.089-.234.232.232,0,0,0-.14.1.922.922,0,0,1-.1-.074.133.133,0,0,1-.027-.059.917.917,0,0,0,.138-.017.428.428,0,0,0,.1-.032c.016-.007.022.007.033.012a.2.2,0,0,0,.053,0s.053.034.063.063.031.046.04.019c0,0,.006.056.081.066a.36.36,0,0,0-.085-.126,1.361,1.361,0,0,0-.119-.091.419.419,0,0,0-.11-.008.212.212,0,0,0,.09-.144.242.242,0,0,1,.087.005c.034.012.079.036.1.043s.032.047.092.017a.385.385,0,0,0-.1-.084c-.042-.018-.108-.037-.136-.051s-.031-.008-.054.015a.492.492,0,0,1-.1.065.852.852,0,0,0-.062-.067.22.22,0,0,0-.063-.13.4.4,0,0,0,.082-.082.15.15,0,0,0,.026-.011c.006,0,.027,0,.029-.035s-.022-.042-.044-.048-.086-.022-.1-.024-.054,0-.054,0a.029.029,0,1,0-.04-.028.149.149,0,0,0-.04,0s0-.094-.081-.114a.126.126,0,0,0-.153.078s-.028-.008-.039,0-.02.006-.038,0a.07.07,0,0,0-.074.028s-.054,0-.069.028a.26.26,0,0,1,.083.029.782.782,0,0,1-.112-.016c-.038-.01-.069-.038-.1-.021a.076.076,0,0,0-.037.044s-.046-.009-.062.069a.087.087,0,0,0-.087.117.061.061,0,0,0-.056.05c-.008.048,0,.038-.01.056s-.008.063.046.05c0,0,.011.018-.013.039,0,0,.049.063.108.029a.52.52,0,0,0,.113-.1.337.337,0,0,1,0,.053.016.016,0,0,1-.01.012s-.025-.01-.03,0,.008.03.014.037a.13.13,0,0,0,.029.032.122.122,0,0,0,.049.015l.092.081a.211.211,0,0,0-.1.129.234.234,0,0,1-.1-.021c-.06-.024-.08-.039-.121-.013s-.019.112,0,.143.028.043-.006.068-.089.04-.021.1c0,0,0,.068.028.07,0,0,0,.033.022.043,0,0-.011-.063.023-.07a.039.039,0,0,0,.032-.056s.011-.006.006-.025-.02-.026-.01-.039.074-.047.042-.081-.07-.077-.056-.095.073.02.1.03a.065.065,0,0,0,.064-.005.276.276,0,0,0,.2.146.2.2,0,0,1-.01.081c-.015.031-.012.063.019.064a.219.219,0,0,1,.106.038.111.111,0,0,0-.029.039.146.146,0,0,0-.05,0c-.01.007-.033,0-.046.013s-.019.035-.059.037a.288.288,0,0,0-.077.008,1.6,1.6,0,0,1-.176-.008l.242.043-.205,0Zm.188-1.015a.1.1,0,0,0,.033.107.212.212,0,0,0,.068.157.364.364,0,0,0-.113.031l-.124-.079s.013-.013-.005-.034-.03-.05-.008-.073.056-.052.056-.052a.258.258,0,0,0,.093-.058m.392.442a.345.345,0,0,1-.145.067s.034.078,0,.123a.121.121,0,0,0,.006.03c0,.011.064.008.087,0a.251.251,0,0,1,.056-.013.373.373,0,0,1,.088.065s.021,0,.027,0a.067.067,0,0,1,.023.01c.007.005.023.008.026,0s-.023-.024-.033-.022-.022-.014-.022-.014-.021,0-.025,0,0-.012-.01-.023-.021-.007-.027-.013-.005-.011-.008-.023-.024-.024-.054-.021c0,0-.007-.055-.09-.05a.247.247,0,0,1,.239.025.141.141,0,0,1,.016-.023.1.1,0,0,1-.025-.017s-.04.011-.05-.014.008,0-.025-.035-.056-.056-.056-.056m-.236.165a.147.147,0,0,1,.015.072c0,.026,0,.044.014.046a.053.053,0,0,0,.036-.012.337.337,0,0,0,.094,0c.033-.008.037-.016.046-.012a.029.029,0,0,0,.037-.006c.01-.014.016,0,.024.014a.082.082,0,0,0,.016.016s-.077.012-.093.018-.024.013-.036.01a.184.184,0,0,0-.055-.016c-.024,0-.076.048-.076.048s-.05-.023-.058-.044a.138.138,0,0,0-.016-.031.126.126,0,0,0,.052-.1m-.03-.845a.131.131,0,0,0-.051.033s0,.01.019.008a.087.087,0,0,1,.042.013l.019-.017a.051.051,0,0,1-.029-.037m.121.128a.118.118,0,0,1-.032-.014s0-.01.011-.013a.047.047,0,0,0,.031-.019c.009-.011.036,0,.036,0a.1.1,0,0,1-.027.03.049.049,0,0,0-.02.02m.243.052a.214.214,0,0,0-.034-.037.262.262,0,0,0,.1-.027.355.355,0,0,1-.064.064" transform="translate(-974.545 1519.805)" fill="#96877d" fill-rule="evenodd"/>
    <path id="Tracé_1853" data-name="Tracé 1853" d="M1244.159,564.062h.926l.067-.055-.124-.073s.015-.006.019-.013.033,0,.038-.019c0,0,.1.091.17,0l-.036-.038s0,.1-.075.025a.345.345,0,0,0,.076-.083c.02-.038.032-.071.056-.072s.014-.014,0-.024a.359.359,0,0,0-.034-.025c-.011-.007-.022,0-.028.012a.092.092,0,0,0-.012.046c0,.02-.013.028-.025.04a.47.47,0,0,1-.059.039.115.115,0,0,0-.025-.062c-.023-.025-.046-.07-.032-.083s.048.028.071.034a.071.071,0,0,0,.071-.025.11.11,0,0,0,.023-.043l.047.022,0-.031.04.006-.021-.023.019-.013h-.042s.012-.02-.029-.02a.3.3,0,0,0-.041-.062.068.068,0,0,0-.032-.008s-.015-.065-.028-.058a.269.269,0,0,0-.044.047c-.009.009-.006.051.05.067a.132.132,0,0,1-.081-.023.16.16,0,0,0,.025.036s-.011.019.019.023.031,0,.034.01.01.016.02.025a.019.019,0,0,1,0,.031c-.011.009-.025,0-.042-.009s-.063-.056-.092-.041a.045.045,0,0,0-.026.059.3.3,0,0,0,.039.061s-.023.011-.027.019a.2.2,0,0,0-.031-.04.468.468,0,0,1,.089-.234.232.232,0,0,0-.14.1.922.922,0,0,1-.1-.074.133.133,0,0,1-.027-.059.917.917,0,0,0,.138-.017.428.428,0,0,0,.1-.032c.016-.007.022.007.033.012a.2.2,0,0,0,.053,0s.053.034.063.063.031.046.04.019c0,0,.006.056.081.066a.36.36,0,0,0-.085-.126,1.361,1.361,0,0,0-.119-.091.419.419,0,0,0-.11-.008.212.212,0,0,0,.09-.144.242.242,0,0,1,.087.005c.034.012.079.036.1.043s.032.047.092.017a.385.385,0,0,0-.1-.084c-.042-.018-.108-.037-.136-.051s-.031-.008-.054.015a.492.492,0,0,1-.1.065.852.852,0,0,0-.062-.067.22.22,0,0,0-.063-.13.4.4,0,0,0,.082-.082.15.15,0,0,0,.026-.011c.006,0,.027,0,.029-.035s-.022-.042-.044-.048-.086-.022-.1-.024-.054,0-.054,0a.029.029,0,1,0-.04-.028.149.149,0,0,0-.04,0s0-.094-.081-.114a.126.126,0,0,0-.153.078s-.028-.008-.039,0-.02.006-.038,0a.07.07,0,0,0-.074.028s-.054,0-.069.028a.26.26,0,0,1,.083.029.782.782,0,0,1-.112-.016c-.038-.01-.069-.038-.1-.021a.076.076,0,0,0-.037.044s-.046-.009-.062.069a.087.087,0,0,0-.087.117.061.061,0,0,0-.056.05c-.008.048,0,.038-.01.056s-.008.063.046.05c0,0,.011.018-.013.039,0,0,.049.063.108.029a.52.52,0,0,0,.113-.1.337.337,0,0,1,0,.053.016.016,0,0,1-.01.012s-.025-.01-.03,0,.008.03.014.037a.13.13,0,0,0,.029.032.122.122,0,0,0,.049.015l.092.081a.211.211,0,0,0-.1.129.234.234,0,0,1-.1-.021c-.06-.024-.08-.039-.121-.013s-.019.112,0,.143.028.043-.006.068-.089.04-.021.1c0,0,0,.068.028.07,0,0,0,.033.022.043,0,0-.011-.063.023-.07a.039.039,0,0,0,.032-.056s.011-.006.006-.025-.02-.026-.01-.039.074-.047.042-.081-.07-.077-.056-.095.073.02.1.03a.065.065,0,0,0,.064-.005.276.276,0,0,0,.2.146.2.2,0,0,1-.01.081c-.015.031-.012.063.019.064a.219.219,0,0,1,.106.038.111.111,0,0,0-.029.039.146.146,0,0,0-.05,0c-.01.007-.033,0-.046.013s-.019.035-.059.037a.288.288,0,0,0-.077.008,1.6,1.6,0,0,1-.176-.008l.242.043-.205,0Zm.188-1.015a.1.1,0,0,0,.033.107.212.212,0,0,0,.068.157.364.364,0,0,0-.113.031l-.124-.079s.013-.013-.005-.034-.03-.05-.008-.073.056-.052.056-.052A.258.258,0,0,0,1244.347,563.047Zm.392.442a.345.345,0,0,1-.145.067s.034.078,0,.123a.121.121,0,0,0,.006.03c0,.011.064.008.087,0a.251.251,0,0,1,.056-.013.373.373,0,0,1,.088.065s.021,0,.027,0a.067.067,0,0,1,.023.01c.007.005.023.008.026,0s-.023-.024-.033-.022-.022-.014-.022-.014-.021,0-.025,0,0-.012-.01-.023-.021-.007-.027-.013-.005-.011-.008-.023-.024-.024-.054-.021c0,0-.007-.055-.09-.05a.247.247,0,0,1,.239.025.141.141,0,0,1,.016-.023.1.1,0,0,1-.025-.017s-.04.011-.05-.014.008,0-.025-.035S1244.74,563.489,1244.74,563.489Zm-.236.165a.147.147,0,0,1,.015.072c0,.026,0,.044.014.046a.053.053,0,0,0,.036-.012.337.337,0,0,0,.094,0c.033-.008.037-.016.046-.012a.029.029,0,0,0,.037-.006c.01-.014.016,0,.024.014a.082.082,0,0,0,.016.016s-.077.012-.093.018-.024.013-.036.01a.184.184,0,0,0-.055-.016c-.024,0-.076.048-.076.048s-.05-.023-.058-.044a.138.138,0,0,0-.016-.031A.126.126,0,0,0,1244.5,563.654Zm-.03-.845a.131.131,0,0,0-.051.033s0,.01.019.008a.087.087,0,0,1,.042.013l.019-.017A.051.051,0,0,1,1244.473,562.809Zm.121.128a.118.118,0,0,1-.032-.014s0-.01.011-.013a.047.047,0,0,0,.031-.019c.009-.011.036,0,.036,0a.1.1,0,0,1-.027.03A.049.049,0,0,0,1244.595,562.937Zm.243.052a.214.214,0,0,0-.034-.037.262.262,0,0,0,.1-.027A.355.355,0,0,1,1244.837,562.99Z" transform="translate(-974.545 1519.805)" fill="none" stroke="#000" stroke-miterlimit="2.414" stroke-width="0.03"/>
    <path id="Tracé_1854" data-name="Tracé 1854" d="M1247.275,563.048a.051.051,0,0,0,.015.008l.027.009a.083.083,0,0,1,.1-.023.071.071,0,0,1,.049.079v0a.034.034,0,0,1-.01.019.028.028,0,0,0-.008.013c0,.011,0,.042,0,.043h-.005s0-.031,0-.043a.032.032,0,0,1,.009-.016.031.031,0,0,0,.009-.016v0a.067.067,0,0,0-.046-.074.078.078,0,0,0-.092.023h0l-.03-.009a.048.048,0,0,1-.017-.01Z" transform="translate(-977.345 1519.495)"/>
    <path id="Tracé_1855" data-name="Tracé 1855" d="M1247.271,563.4a.147.147,0,0,1,.022-.015.053.053,0,0,1,.018-.007.213.213,0,0,1,.038,0,.188.188,0,0,1,.037.007.253.253,0,0,0,.04.008.194.194,0,0,0,.036,0v.005a.214.214,0,0,1-.037,0l-.041-.009a.18.18,0,0,0-.036-.007.214.214,0,0,0-.036,0,.046.046,0,0,0-.016.006.149.149,0,0,0-.022.015Z" transform="translate(-977.345 1519.207)"/>
    <path id="Tracé_1856" data-name="Tracé 1856" d="M1247.439,563.455a.015.015,0,0,0,.01-.009.035.035,0,0,0,0-.02c0-.008-.008-.024-.008-.024l0,0a.246.246,0,0,1,.009.025.043.043,0,0,1,0,.023.02.02,0,0,1-.014.012Z" transform="translate(-977.483 1519.193)"/>
    <path id="Tracé_1857" data-name="Tracé 1857" d="M1248.221,563.43a.082.082,0,0,0,.014-.019.267.267,0,0,0,.017-.032.239.239,0,0,1,.016-.029l.021-.032,0,0-.02.031a.275.275,0,0,0-.015.028.262.262,0,0,1-.017.033.085.085,0,0,1-.015.021Z" transform="translate(-978.127 1519.26)"/>
    <path id="Tracé_1858" data-name="Tracé 1858" d="M1248.215,563.321a.137.137,0,0,1-.017.049.261.261,0,0,1-.037.051.259.259,0,0,0-.047.072.137.137,0,0,0-.012.067.343.343,0,0,0,.014.062.17.17,0,0,1,.009.052.124.124,0,0,1-.043.07l0,0s.04-.033.041-.066a.156.156,0,0,0-.009-.05.364.364,0,0,1-.013-.062.138.138,0,0,1,.012-.069.267.267,0,0,1,.048-.073.254.254,0,0,0,.036-.05.132.132,0,0,0,.017-.047Z" transform="translate(-978.009 1519.258)"/>
    <path id="Tracé_1859" data-name="Tracé 1859" d="M1249.681,564.007a.106.106,0,0,0,.014-.013l.014-.013.014-.009h.007a.008.008,0,0,1,.005,0,.011.011,0,0,1,0,0c0,.01-.015.027-.015.027l0,0s.014-.015.014-.023v0h-.005l-.013.008-.013.013a.111.111,0,0,1-.015.014Z" transform="translate(-979.329 1518.723)"/>
    <path id="Tracé_1860" data-name="Tracé 1860" d="M1248.2,564.3a.965.965,0,0,1-.1.075.351.351,0,0,1-.08.04c-.026.008-.04-.013-.049-.042a.5.5,0,0,1-.013-.1.176.176,0,0,0,0-.024l.005,0a.117.117,0,0,1,0,.026.48.48,0,0,0,.013.1c.008.027.021.045.043.039a.344.344,0,0,0,.078-.039.958.958,0,0,0,.1-.074Z" transform="translate(-977.907 1518.5)"/>
    <path id="Tracé_1861" data-name="Tracé 1861" d="M1247.867,564.305a.941.941,0,0,1-.111.078.337.337,0,0,1-.086.04c-.041.01-.057-.029-.065-.061,0-.011,0-.02-.005-.027v-.009a.059.059,0,0,1,0-.013.037.037,0,0,0-.016-.033.285.285,0,0,1-.049-.039l0,0h0a.05.05,0,0,1,.029,0h0a.3.3,0,0,1,.047.034l0,0a.294.294,0,0,0-.046-.033h0a.033.033,0,0,0-.021,0,.26.26,0,0,0,.044.035.04.04,0,0,1,.019.037.1.1,0,0,0,0,.012.1.1,0,0,1,0,.01c0,.007,0,.017.005.027.007.03.022.065.058.057a.338.338,0,0,0,.084-.039.876.876,0,0,0,.11-.078Z" transform="translate(-977.557 1518.505)"/>
    <path id="Tracé_1862" data-name="Tracé 1862" d="M1248.052,565.255a.313.313,0,0,0-.011.052v0a.039.039,0,0,0,0,.016.074.074,0,0,1,0,.017.034.034,0,0,1-.01.026l0,0a.028.028,0,0,0,.008-.022.063.063,0,0,0,0-.016.038.038,0,0,1,0-.017v0a.276.276,0,0,1,.011-.053Z" transform="translate(-977.97 1517.667)"/>
    <path id="Tracé_1863" data-name="Tracé 1863" d="M1248.191,565.924a.512.512,0,0,1-.024-.057.38.38,0,0,1-.017-.052c0-.008,0-.015,0-.02s0-.023-.024-.038a.235.235,0,0,0-.049-.026.3.3,0,0,0-.058-.018c-.031-.006-.031-.008-.031-.047v0h.005v0c0,.035,0,.037.027.042a.353.353,0,0,1,.059.018.271.271,0,0,1,.05.026c.024.017.025.025.026.042s0,.012,0,.02a.434.434,0,0,0,.016.052.6.6,0,0,0,.024.056Z" transform="translate(-977.933 1517.329)"/>
    <path id="Tracé_1864" data-name="Tracé 1864" d="M1247.032,564.186a.032.032,0,0,0-.01-.006.054.054,0,0,1-.015-.009l-.011-.008a.4.4,0,0,1-.077-.068l0,0a.123.123,0,0,1-.025-.07.217.217,0,0,0-.011-.046.162.162,0,0,0-.017-.031.335.335,0,0,0-.027-.033.117.117,0,0,1-.021-.028l0-.007a.05.05,0,0,1,0-.021h.005a.048.048,0,0,0,0,.019l0,.007a.123.123,0,0,0,.02.026.294.294,0,0,1,.027.034.177.177,0,0,1,.018.032.219.219,0,0,1,.011.047.119.119,0,0,0,.024.068l0,0a.412.412,0,0,0,.076.067l.011.008a.065.065,0,0,0,.014.008.037.037,0,0,1,.012.007Z" transform="translate(-976.964 1518.817)"/>
    <path id="Tracé_1865" data-name="Tracé 1865" d="M1247.4,563.874a.066.066,0,0,1-.025-.01.1.1,0,0,1-.024-.019c-.009-.011-.033-.033-.033-.034l0,0s.024.023.033.034a.1.1,0,0,0,.023.018.064.064,0,0,0,.023.009Z" transform="translate(-977.386 1518.857)"/>
    <path id="Tracé_1866" data-name="Tracé 1866" d="M1246.466,563.6l.01,0,.031.009a.267.267,0,0,0,.052.005v.005a.274.274,0,0,1-.053-.006l-.03-.009-.01,0Z" transform="translate(-976.681 1519.027)"/>
    <path id="Tracé_1867" data-name="Tracé 1867" d="M1245.619,563.735a.062.062,0,0,1-.015.011l-.021.01-.01,0a.092.092,0,0,0-.048.029c-.018.021-.015.025-.015.025l0,0h0a.078.078,0,0,0-.049.039h0a.182.182,0,0,0-.071.061h0a.2.2,0,0,0-.064.116h-.005a.212.212,0,0,1,.065-.119.185.185,0,0,1,.072-.063.083.083,0,0,1,.051-.04.059.059,0,0,1,.016-.028.1.1,0,0,1,.051-.031l.01,0,.02-.009a.055.055,0,0,0,.014-.01Z" transform="translate(-975.734 1518.92)"/>
    <path id="Tracé_1868" data-name="Tracé 1868" d="M1246.12,564.625a.188.188,0,0,0,.01-.022l0-.011a.2.2,0,0,1-.036.032.062.062,0,0,1-.025.005.04.04,0,0,0-.017,0s-.009.015-.014.027a.09.09,0,0,1-.012.026l0,0a.1.1,0,0,0,.011-.024c.005-.014.01-.027.016-.03a.045.045,0,0,1,.019,0,.06.06,0,0,0,.023,0,.291.291,0,0,0,.042-.039l.007-.007,0,.01a.175.175,0,0,1-.008.022.2.2,0,0,1-.011.022Z" transform="translate(-976.321 1518.227)"/>
    <path id="Tracé_1870" data-name="Tracé 1870" d="M1245.622,566.063s0-.007,0-.013a.051.051,0,0,1,0-.022c.007-.013.029.007.029.007l0,0s-.017-.015-.021-.008a.05.05,0,0,0,0,.019.027.027,0,0,1,0,.017Z" transform="translate(-975.986 1517.032)"/>
    <path id="Tracé_1871" data-name="Tracé 1871" d="M1246.138,566.558c.012.012.059.052.063.056l.1.035-.053-.081-.049-.034,0,0,.05.034h0l.057.088,0,.007-.007,0-.1-.038h0s-.052-.044-.064-.056Z" transform="translate(-976.408 1516.616)"/>
    <path id="Tracé_1872" data-name="Tracé 1872" d="M1247.126,566.352a1.019,1.019,0,0,0,.119.024,1.069,1.069,0,0,0,.121.011h0v0s.017.12.051.14l0,0c-.033-.02-.051-.125-.053-.141a1.127,1.127,0,0,1-.12-.011.968.968,0,0,1-.119-.025Z" transform="translate(-977.224 1516.761)"/>
    <path id="Tracé_1873" data-name="Tracé 1873" d="M1249.665,567.9l.013,0a.032.032,0,0,1,.013,0,.084.084,0,0,0,.023,0,.045.045,0,0,0,.019,0c.008,0-.035-.035-.035-.035l0,0s.05.038.034.045a.059.059,0,0,1-.021,0,.092.092,0,0,1-.025,0l-.011,0-.015,0Z" transform="translate(-979.315 1515.511)"/>
    <path id="Tracé_1874" data-name="Tracé 1874" d="M1249.578,568.191c.014.009.039.028.061.045a.367.367,0,0,1,.042.036l0,0a.408.408,0,0,0-.041-.035c-.021-.017-.046-.035-.06-.044Z" transform="translate(-979.242 1515.247)"/>
    <path id="Tracé_1875" data-name="Tracé 1875" d="M1250.33,568.9a.05.05,0,0,1-.007-.01.027.027,0,0,1,0-.01h.005a.031.031,0,0,0,0,.008l.006.009Z" transform="translate(-979.856 1514.679)"/>
    <path id="Tracé_1876" data-name="Tracé 1876" d="M1250.9,569.435a.1.1,0,0,0,.014.017.054.054,0,0,0,.015.011l0,.005a.056.056,0,0,1-.017-.012.078.078,0,0,1-.015-.018Z" transform="translate(-980.329 1514.222)"/>
    <path id="Tracé_1877" data-name="Tracé 1877" d="M1249.829,569.068a.037.037,0,0,1-.024,0,.042.042,0,0,1-.022-.011l-.018-.015-.019-.012a.055.055,0,0,1-.018-.019l0,0a.045.045,0,0,0,.016.017l.019.012.019.016a.035.035,0,0,0,.019.009.031.031,0,0,0,.02,0Z" transform="translate(-979.369 1514.571)"/>
    <path id="Tracé_1878" data-name="Tracé 1878" d="M1249.027,568.943a.067.067,0,0,1,.019.006.091.091,0,0,0,.022.007h.012l0,0a0,0,0,0,0,0,0,.015.015,0,0,0,0-.005l0,0a.021.021,0,0,1,0,.007.011.011,0,0,1,0,.008l-.008,0h-.015a.082.082,0,0,1-.023-.007.068.068,0,0,0-.017-.005Z" transform="translate(-978.791 1514.629)"/>
    <path id="Tracé_1879" data-name="Tracé 1879" d="M1248.759,569.622a.013.013,0,0,0-.011,0,.025.025,0,0,1-.019.008h-.006a.1.1,0,0,0-.043,0,.026.026,0,0,1-.023,0,.05.05,0,0,0-.017,0,.072.072,0,0,0-.022,0,.073.073,0,0,1-.036,0c-.012,0-.014,0-.016.007a.016.016,0,0,1-.007.008c-.005,0-.01,0-.016-.009s-.012-.013-.019-.013a.1.1,0,0,0-.028.009.2.2,0,0,1-.029.01.186.186,0,0,1-.039.006.03.03,0,0,1-.022-.005c-.006-.007,0-.012.006-.019a.069.069,0,0,0,.012-.015.133.133,0,0,0,.008-.035.106.106,0,0,1,.007-.029l0,0a.133.133,0,0,0-.006.027.131.131,0,0,1-.009.036.066.066,0,0,1-.013.016c0,.005-.008.009-.006.011a.028.028,0,0,0,.018,0,.172.172,0,0,0,.038-.005.189.189,0,0,0,.028-.01.108.108,0,0,1,.03-.01c.009,0,.017.008.023.015s.008.009.01.008,0,0,0-.005.006-.013.022-.01a.069.069,0,0,0,.033,0,.082.082,0,0,1,.024,0,.059.059,0,0,1,.019,0,.021.021,0,0,0,.019,0,.1.1,0,0,1,.046-.005h.006a.02.02,0,0,0,.016-.006.017.017,0,0,1,.016-.005Z" transform="translate(-978.275 1514.119)"/>
    <path id="Tracé_1880" data-name="Tracé 1880" d="M1248.818,569.492v.006c0,.016,0,.02-.016.037a.1.1,0,0,0-.016.019.006.006,0,0,0,0,.008s.01,0,.021-.005a.164.164,0,0,0,.035-.022.094.094,0,0,1,.024-.016.013.013,0,0,1,.018.008.032.032,0,0,1,0,.019.015.015,0,0,0,0,.008l0,0c.005.005.011.012,0,.028l0,0c.006-.013,0-.018,0-.022l0-.007a.022.022,0,0,1,0-.01.029.029,0,0,0,0-.017.007.007,0,0,0-.011,0,.083.083,0,0,0-.023.015.181.181,0,0,1-.037.023c-.012.005-.022.008-.026,0a.01.01,0,0,1,0-.014.091.091,0,0,1,.016-.02.037.037,0,0,0,.014-.034v-.006Z" transform="translate(-978.588 1514.175)"/>
    <path id="Tracé_1881" data-name="Tracé 1881" d="M1248.189,569.367a.111.111,0,0,0,.017.032l.018.023c0,.005.029.006.029.006v.005s-.027,0-.033-.008a.282.282,0,0,1-.018-.023.1.1,0,0,1-.018-.034Z" transform="translate(-978.096 1514.278)"/>
    <path id="Tracé_1882" data-name="Tracé 1882" d="M1247.444,569.3a.034.034,0,0,0,.011.01l.017.006a.028.028,0,0,0,.019,0,.032.032,0,0,1,.014,0,.039.039,0,0,1,.019.006.069.069,0,0,1,.017.016c.006.008.018.025.028.041a.124.124,0,0,1,.014.028v.005a.032.032,0,0,1,0,.009c0,.007-.006.011-.028.009a.089.089,0,0,1-.047-.017.071.071,0,0,0-.018-.01.121.121,0,0,1-.023-.009.061.061,0,0,1-.015-.011.111.111,0,0,0-.023-.017.07.07,0,0,0-.021-.009v-.005a.081.081,0,0,1,.022.01.131.131,0,0,1,.024.017.051.051,0,0,0,.013.01l.022.009a.075.075,0,0,1,.019.01.085.085,0,0,0,.045.017c.018,0,.022,0,.022,0a.025.025,0,0,0,0-.007l0-.005a.131.131,0,0,0-.014-.026c-.01-.015-.021-.032-.028-.04a.06.06,0,0,0-.016-.014.037.037,0,0,0-.016-.005.027.027,0,0,0-.012,0,.035.035,0,0,1-.023,0l-.018-.007a.035.035,0,0,1-.013-.012Z" transform="translate(-977.461 1514.331)"/>
    <path id="Tracé_1883" data-name="Tracé 1883" d="M1247.236,569.715s0,0,0,0l0,0,.006,0a.018.018,0,0,0,.012,0,.424.424,0,0,0,.048-.028l0,0a.4.4,0,0,1-.049.028.023.023,0,0,1-.016,0l-.008-.005a.014.014,0,0,1,0-.007.008.008,0,0,1,0-.006Z" transform="translate(-977.311 1514.006)"/>
    <path id="Tracé_1884" data-name="Tracé 1884" d="M1247.413,567.818a.016.016,0,0,0,0-.009.011.011,0,0,1,0-.009.008.008,0,0,1,0-.006.035.035,0,0,0,.011-.012.067.067,0,0,0,.005-.03.058.058,0,0,1,.008-.033.05.05,0,0,1,.032-.01.07.07,0,0,1,.039.006l0,0a.069.069,0,0,0-.035,0,.047.047,0,0,0-.028.009.05.05,0,0,0-.007.03.076.076,0,0,1-.006.033.041.041,0,0,1-.013.014l0,0a.007.007,0,0,0,0,.005.022.022,0,0,1,0,.011Z" transform="translate(-977.458 1515.645)"/>
    <path id="Tracé_1885" data-name="Tracé 1885" d="M1245.577,567.439a.119.119,0,0,0,0,.026.073.073,0,0,0,.005.021l0,0a.077.077,0,0,1-.006-.022.129.129,0,0,1,0-.027Z" transform="translate(-975.945 1515.866)"/>
    <path id="Tracé_1886" data-name="Tracé 1886" d="M1247.857,564.567v0a.075.075,0,0,0-.007.04.287.287,0,0,0,0,.039.066.066,0,0,0,.013.032.048.048,0,0,0,.026.018v.005a.051.051,0,0,1-.03-.02.072.072,0,0,1-.015-.035.252.252,0,0,1,0-.04.079.079,0,0,1,.008-.043l0,0Z" transform="translate(-977.816 1518.234)"/>
    <path id="Tracé_1887" data-name="Tracé 1887" d="M1250.764,567.8a.086.086,0,0,0,.032,0,.044.044,0,0,0,.022-.011l0,0a.049.049,0,0,1-.024.012.1.1,0,0,1-.034,0Z" transform="translate(-980.221 1515.578)"/>
    <path id="Tracé_1888" data-name="Tracé 1888" d="M1251.572,567.877a.122.122,0,0,1,0,.033.081.081,0,0,1-.008.029l0,0a.093.093,0,0,0,.008-.027.117.117,0,0,0,0-.031Z" transform="translate(-980.875 1515.505)"/>
    <path id="Tracé_1889" data-name="Tracé 1889" d="M1241.852,562.485s0-.007,0-.01v-.007a.012.012,0,0,1,0-.005l0,0,.008,0,.014,0,.023-.006.03-.007.031-.007.025-.005.016,0h.009l.006,0a.013.013,0,0,1,0,.005l0,.006,0,.008h0l0-.017-.005-.02,0-.021,0-.017h0s0,.007,0,.01v.007a.015.015,0,0,1,0,.007l-.005,0-.009,0-.012,0-.016,0-.017,0-.015,0h0v-.007l0-.011,0-.013,0-.012,0-.009a.009.009,0,0,1,0-.007.014.014,0,0,1,.005-.006l.005,0,.007,0h0v0h0l-.011,0-.014,0-.011,0-.01,0h-.008v0h.019l0,0a.03.03,0,0,1,0,.008l0,.007,0,.01,0,.012,0,.01,0,.007h0l-.014,0-.017,0-.017,0-.015,0-.01,0h0l0,0,0-.006,0-.011,0-.013,0-.012,0-.008a.016.016,0,0,1,0-.009.013.013,0,0,1,.005-.006l.008,0,.013-.005s0,0,0,0v0h0l-.017,0-.015,0h-.011l0,.006,0,.008,0,.012.015.066,0,.022c0,.006,0,.01,0,.013h0m.151-.391a.1.1,0,0,0,0-.031.1.1,0,0,0-.011-.029.088.088,0,0,0-.021-.024.1.1,0,0,0-.028-.016.123.123,0,0,0-.034-.008.108.108,0,0,0-.03,0,.1.1,0,0,0-.028.009.08.08,0,0,0-.023.017.089.089,0,0,0-.017.025.108.108,0,0,0-.008.033.146.146,0,0,0,0,.024.126.126,0,0,0,.006.023.1.1,0,0,0,.011.021.088.088,0,0,0,.016.017.112.112,0,0,0,.025.015.121.121,0,0,0,.031.007.109.109,0,0,0,.026,0,.111.111,0,0,0,.026-.006.1.1,0,0,0,.024-.013.082.082,0,0,0,.017-.017.094.094,0,0,0,.018-.049m-.009-.012a.08.08,0,0,1,0,.022.063.063,0,0,1-.01.017.069.069,0,0,1-.019.016.091.091,0,0,1-.023.01.11.11,0,0,1-.025,0h-.024a.133.133,0,0,1-.031-.006.083.083,0,0,1-.025-.013.054.054,0,0,1-.017-.02.057.057,0,0,1,0-.014.061.061,0,0,1,0-.016.065.065,0,0,1,.006-.023.064.064,0,0,1,.012-.018.073.073,0,0,1,.018-.015.093.093,0,0,1,.022-.009l.024,0h.024a.127.127,0,0,1,.028.005.089.089,0,0,1,.024.011.068.068,0,0,1,.019.017.044.044,0,0,1,.007.016.06.06,0,0,1,0,.019m-.13-.283,0-.007,0-.005a.01.01,0,0,1,.007,0l.01,0,.01,0,.014.006.016.007.016.007.013.006.01,0,.012.006.014.006.013.006.01.005.006,0,.008.005,0,0a.011.011,0,0,1,0,.006v.006l0,.008h0l0-.011.01-.022.007-.014.006-.012,0-.008h0l0,.007,0,.006,0,0h-.005l-.009,0-.012,0-.015-.007-.016-.007-.014-.006h0l0,0,0-.005,0-.005,0,0,0,0,.005,0,.014,0,.017,0,.018,0,.016,0,.013,0,.01,0,.007,0,.006-.008.007-.011.006-.011,0-.01h0l0,.008-.005.006-.007,0-.011,0-.015,0-.019,0-.021,0-.019,0-.015,0h0a.106.106,0,0,0,0-.015.061.061,0,0,0,0-.015.05.05,0,0,0-.009-.013.047.047,0,0,0-.015-.01.046.046,0,0,0-.018,0,.041.041,0,0,0-.018,0,.045.045,0,0,0-.016.011.07.07,0,0,0-.013.02l-.006.013-.006.014-.008.016,0,.007,0,.008,0,.008,0,.006h0m.028-.054a.063.063,0,0,1,.017-.022.038.038,0,0,1,.021-.008.052.052,0,0,1,.025.005l.014.009a.041.041,0,0,1,.008.01.049.049,0,0,1,0,.01.035.035,0,0,1,0,.009.027.027,0,0,1,0,.007l0,.009,0,.01,0,.008h0l-.017-.008-.018-.008-.017-.008-.013-.006-.008,0h0a.019.019,0,0,1,0,0l0,0m.5-.347h-.007l0,0,0-.005-.006-.007-.006-.008-.005-.007-.005-.008a.01.01,0,0,1,0-.005.009.009,0,0,1,0,0l0,0,0,0h0v0h0l-.005.005-.007.006-.01.008-.017.012-.015.011h0v0h0l.005,0,0,0,0,0,.007,0,.006,0,.007.007.008.009.008.01.006.01a.025.025,0,0,1,0,.009.011.011,0,0,1,0,.008l0,0-.005.006-.006.006a.085.085,0,0,1-.033.017.076.076,0,0,1-.033,0,.093.093,0,0,1-.032-.015.138.138,0,0,1-.028-.027.117.117,0,0,1-.023-.043.066.066,0,0,1,0-.039.076.076,0,0,1,.026-.034.116.116,0,0,1,.021-.013.062.062,0,0,1,.019-.006h.01l.011.006.013.013h0l0,0v0l-.007-.01-.007-.011-.006-.01,0-.008-.015.008-.017.01-.018.012-.017.015-.013.015-.01.016a.087.087,0,0,0-.01.034.09.09,0,0,0,0,.035.107.107,0,0,0,.018.033.121.121,0,0,0,.045.037.078.078,0,0,0,.05,0,.139.139,0,0,0,.053-.027l.015-.013.013-.015.01-.013.006-.008h0v0h0m.1-.054a0,0,0,0,0,0,0v0h0l.011,0,.017-.006.013,0,.012,0,.009,0v0h-.022l0,0a.013.013,0,0,1,0,0,.064.064,0,0,1,0-.008v-.012s0-.009,0-.014,0-.01,0-.014,0-.009,0-.012v0h.008l.007,0,.011,0,.013,0,.008,0h.007l.01.012.011.015.011.014.008.011a.008.008,0,0,1,0,0s0,0,0,0l-.006,0-.008,0v0h0l.009,0,.013,0,.013,0,.008,0,.009,0,.009,0,.007,0h0v0h0l-.012,0h-.008l-.007,0-.009-.009-.01-.013-.014-.018-.016-.022-.017-.023-.016-.022-.013-.018-.008-.011-.008-.012h0l-.006,0-.005,0h0a.036.036,0,0,1,0,.007s0,.005,0,.009v.015c0,.007,0,.014,0,.023s0,.018,0,.028,0,.021,0,.031,0,.02,0,.03,0,.018,0,.026a.107.107,0,0,1,0,.014.023.023,0,0,1,0,.009.023.023,0,0,1-.007.006l-.012.006m.04-.18.043.061h0l-.008,0-.008,0-.016.005-.008,0h0s0-.007,0-.012,0-.01,0-.016,0-.012,0-.018,0-.011,0-.017,0-.009,0-.012h0" transform="translate(-972.841 1521.062)"/>
    <path id="Tracé_1890" data-name="Tracé 1890" d="M1247.251,560.8h.015l.007,0a.009.009,0,0,1,0,.005.073.073,0,0,1,0,.01s0,.006,0,.011v.019l0,.028c0,.014,0,.025,0,.034s0,.017,0,.023,0,.011,0,.015,0,.007,0,.009a.065.065,0,0,1,0,.014l0,0-.005,0h-.007l-.009,0v0h.124l.008,0,0,0,0-.007,0-.01,0-.011,0-.011s0-.006,0-.008h-.005a.109.109,0,0,1-.005.014.078.078,0,0,1-.006.012l-.005.008a.027.027,0,0,1-.008.008l-.009,0h-.052a0,0,0,0,1,0,0,.013.013,0,0,1,0-.006l0-.015c0-.006,0-.013,0-.021s0-.015,0-.023,0-.015,0-.022,0-.011,0-.017,0-.011,0-.017,0-.011,0-.016v-.021a.057.057,0,0,1,0-.007.006.006,0,0,1,0,0l.005,0h.013a0,0,0,0,0,0,0h-.014l-.021,0h-.036a0,0,0,0,0,0,0h0m.313.007,0,0,.005,0,0,0,.006,0a.009.009,0,0,1,0,.006.079.079,0,0,1,0,.01l0,.011c0,.005,0,.011,0,.019l-.006.028-.008.033-.005.022,0,.014,0,.009,0,.005a.026.026,0,0,1,0,.007l0,0h-.023v0a0,0,0,0,0,0,0l.01,0,.014,0,.014,0,.01,0,.014,0,.016,0,.017,0,.015,0,.011,0h.009l0,0,0-.006.005-.009.006-.01.005-.01,0-.008h0l-.009.012-.009.01-.008.007-.01,0h-.009l-.01,0-.012,0-.012,0-.011,0-.006,0,0,0a.012.012,0,0,1,0-.006l0-.014,0-.02.005-.023.005-.022,0-.016,0-.017,0-.015,0-.013,0-.008,0-.006a.006.006,0,0,1,0,0l.006,0h.014v0h0l-.013,0-.021,0-.016,0-.011,0-.008,0h0v0Zm.189.244h0v0a0,0,0,0,0,0,0l.01.005.016.008.012.007.011.007.008,0h0v0l-.006,0,0,0a.015.015,0,0,1,0-.006.007.007,0,0,1,0,0l0,0,.005-.006.009-.008.011-.01.01-.01.009-.008h.006l0,0,.006,0,.01.005.012.007.007,0,0,0h0l0,.015,0,.018,0,.017,0,.013a.008.008,0,0,1,0,0h-.005l-.007,0-.008,0h0v0h0l.009,0,.012.006.012.007.007,0,.008,0,.008.005.006,0h0v0l-.01-.008,0-.007a.018.018,0,0,1,0-.008.107.107,0,0,1,0-.013l0-.016,0-.023c0-.009,0-.018.005-.027s0-.019.005-.028,0-.018.005-.026l0-.022,0-.013,0-.014h0l-.005,0,0,0,0,0,0,.005-.006.006-.011.01-.018.016-.021.018-.023.02-.023.019-.02.017-.012.008-.009,0h-.009l-.013,0m.159-.094-.015.073h0l0,0-.007,0-.007,0-.015-.008-.007,0h0l.009-.008.012-.011.013-.012.012-.011.009-.008h0m.225.128.005.008,0,.007a.029.029,0,0,1,0,.008v.006l0,.005,0,0-.029.024-.026.022-.022.019-.017.014-.01.009-.01.006h-.007l-.006,0-.005,0-.006-.005h0l.009.009.013.014.009.011.008.01.005.007h0l0-.007,0-.007a.017.017,0,0,1,0-.007.013.013,0,0,1,0-.007.038.038,0,0,1,.008-.009l.008-.007.013-.011.016-.014.017-.015.017-.015.016-.013.012-.011h0l0,.014,0,.023c0,.009,0,.018-.005.029l-.006.032-.006.032-.006.029,0,.024,0,.015,0,0,0,.006,0,0,.009-.008.011-.01.011-.01.021-.017.022-.019.021-.018.019-.016.015-.012.006,0h.006l.007,0,0,0,.005,0h0l0,0-.005-.005-.006-.006-.006-.006-.013-.016-.01-.012h0l.006.008,0,.008a.018.018,0,0,1,0,.007.016.016,0,0,1,0,.006l-.005.006-.01.01-.015.014-.018.016-.02.017-.019.017-.017.015h0l0-.017,0-.028.006-.034.006-.037.006-.035.005-.03c0-.006,0-.011,0-.014a.023.023,0,0,1,0-.006l0,0-.005-.007-.008-.009-.007-.009-.006-.006h0m.1.492,0-.006v-.009a.029.029,0,0,1,0,0,.01.01,0,0,1,0,0l.005,0,.009,0,.01,0,.017-.007.021-.009.024-.01.025-.01.023-.01.02-.008h0l0,.006,0,.009,0,.01,0,.01,0,.008a.014.014,0,0,1,0,.008.013.013,0,0,1,0,.007l-.006,0-.008,0-.008,0a0,0,0,0,0,0,0v0h0l.013,0,.013,0,.012,0h.009l-.005-.007,0-.008,0-.009-.043-.107,0-.008,0-.009a.033.033,0,0,1,0-.008h0l-.01,0-.012,0-.013,0-.011,0v0h.031l.007,0a.012.012,0,0,1,0,.006l0,.006,0,.009,0,.01,0,.009,0,.006h0l-.026.01-.029.011-.029.011-.026.01-.02.008-.012,0-.011,0h-.008a.01.01,0,0,1-.005-.005l0-.007-.006-.01h0l.007.017.01.024,0,.013,0,.013,0,.011h0" transform="translate(-977.328 1521.341)"/>
    <path id="Tracé_1891" data-name="Tracé 1891" d="M1253.146,566.066s0,.005,0,.008a.047.047,0,0,1,0,.007.01.01,0,0,1,0,.008.015.015,0,0,1-.009,0h-.026l-.017,0-.017,0h-.1l-.006,0a.01.01,0,0,1,0-.005l0-.006a.052.052,0,0,0,0-.008h0l0,.012c0,.006,0,.014,0,.024v.015s0,.009,0,.013,0,.007,0,.008h0s0-.006,0-.009a.048.048,0,0,1,0-.008.013.013,0,0,1,0,0l0,0,.01,0H1253l.016,0,.017,0h.017v.02a.01.01,0,0,1,0,0l0,0-.011.009-.014.011-.015.011-.013.011-.01.009-.007.008,0,.008a.052.052,0,0,0,0,.01.1.1,0,0,0,0,.012s0,.009,0,.013v.011h.005a.077.077,0,0,1,0-.009.022.022,0,0,1,0-.008.03.03,0,0,1,0-.008l.008-.01.011-.011.014-.013.016-.013.015-.012.012-.009h0a.069.069,0,0,0,.008.013l.011.011a.049.049,0,0,0,.015.007.054.054,0,0,0,.018,0,.045.045,0,0,0,.018,0,.046.046,0,0,0,.014-.011.048.048,0,0,0,.008-.017.067.067,0,0,0,0-.024v-.015s0-.01,0-.016,0-.011,0-.018v-.017s0-.006,0-.009,0,0,0-.007h0m0,.061a.058.058,0,0,1,0,.028.036.036,0,0,1-.015.018.051.051,0,0,1-.024.008h-.017l-.012,0-.008-.006-.005-.007a.026.026,0,0,1,0-.007.072.072,0,0,1,0-.01s0-.007,0-.011v-.01h.021l.02,0h.046v0a.024.024,0,0,1,0,0m0,.263,0,.007,0,.006,0,.005,0,0-.009,0-.016.005-.016,0-.018,0-.018,0-.016,0-.013,0h-.015l-.044-.011-.008,0-.006,0a.013.013,0,0,1,0-.007s0-.005,0-.008v-.01h0l0,.016,0,.022,0,.015,0,.014a.071.071,0,0,0,0,.01h0l0-.006,0,0,0,0a.012.012,0,0,1,.005-.006h.007l.011,0,.049.01h0l0,0,0,0,.01.008.014.012.016.014.015.014.013.012.007.007,0,.008a.02.02,0,0,1,0,.009v.013h0l0-.01,0-.009,0-.011,0-.01,0-.011,0-.009h0l0,0,0,0v0s0,.006-.006.007a.012.012,0,0,1-.009,0l-.011-.009-.014-.011-.014-.013-.014-.013-.011-.01h0l.009,0,.014,0,.017,0,.017,0,.016,0,.012,0a.01.01,0,0,1,.008,0,.006.006,0,0,1,0,0v.005a.023.023,0,0,1,0,.005h0s0,0,0,0a.053.053,0,0,0,0-.008l0-.009,0-.009c0-.008,0-.014.005-.021l0-.016h0" transform="translate(-982.01 1516.998)"/>
    <path id="Tracé_1892" data-name="Tracé 1892" d="M1242.727,560.571a1.131,1.131,0,1,1-1.131,1.131A1.131,1.131,0,0,1,1242.727,560.571Z" transform="translate(-972.67 1521.523)" fill="none" stroke="#96877d" stroke-miterlimit="2.414" stroke-width="0.081"/>
    <path id="Tracé_1893" data-name="Tracé 1893" d="M1243.981,562.095a.862.862,0,1,1-.862.862A.863.863,0,0,1,1243.981,562.095Z" transform="translate(-973.925 1520.268)" fill="none" stroke="#96877d" stroke-miterlimit="2.414" stroke-width="0.081"/>
    <path id="Tracé_1894" data-name="Tracé 1894" d="M1245.75,571.875h0a.033.033,0,0,1,.033.032v.057h.092a.033.033,0,0,1,0,.065h-.092v.057a.032.032,0,1,1-.065,0v-.057h-.092a.033.033,0,0,1,0-.065h.092v-.057a.033.033,0,0,1,.032-.032m.432-.011a.052.052,0,1,1-.052.052.051.051,0,0,1,.052-.052m-.864,0a.052.052,0,1,1-.052.052.052.052,0,0,1,.052-.052" transform="translate(-975.694 1512.222)" fill-rule="evenodd"/>
    <path id="Tracé_1895" data-name="Tracé 1895" d="M1252.371,559.929a.253.253,0,1,1-.4-.057.293.293,0,0,1,.4.057" transform="translate(-981.168 1522.146)" fill="#96877d" fill-rule="evenodd"/>
    <path id="Tracé_1896" data-name="Tracé 1896" d="M1252.572,560.083l-.062.13.133-.062.051.04-.233.108-.073.034.035-.073.106-.222Zm.229.217-.232.227-.039-.041.232-.227Z" transform="translate(-981.559 1521.961)" fill="#ccc"/>
    <path id="Tracé_1901" data-name="Tracé 1901" d="M1252.356,571.341a.253.253,0,1,1,.057-.4.293.293,0,0,1-.057.4" transform="translate(-981.156 1513.029)" fill="#96877d" fill-rule="evenodd"/>
    <path id="Tracé_1902" data-name="Tracé 1902" d="M1252.6,571.542l-.13-.062.062.133-.04.051-.108-.233-.034-.073.073.035.222.106Zm-.217.229-.227-.232.041-.04.227.232Z" transform="translate(-981.365 1512.638)" fill="#ccc"/>
  </g>
</svg>
