<svg xmlns="http://www.w3.org/2000/svg" width="30" height="20" viewBox="0 0 30 20">
  <g id="por" transform="translate(-52.607 -2093.614)">
    <rect id="Rectangle_1493" data-name="Rectangle 1493" width="12" height="20" transform="translate(52.607 2093.614)" fill="#00840f"/>
    <rect id="Rectangle_1494" data-name="Rectangle 1494" width="18" height="20" transform="translate(64.607 2093.614)" fill="#ff1612"/>
    <path id="Tracé_4930" data-name="Tracé 4930" d="M1101.157,793.7s.749.389,1.235.573.656.133.676.083a.923.923,0,0,1,.043-.091l-.172-.312-1.2-.992s-.526.106-.541.123-.04.617-.04.617" transform="translate(-1034.318 1312.52)" fill="#ff0" fill-rule="evenodd"/>
    <path id="Tracé_4931" data-name="Tracé 4931" d="M1101.157,793.7s.749.389,1.235.573.656.133.676.083a.923.923,0,0,1,.043-.091l-.172-.312-1.2-.992s-.526.106-.541.123S1101.157,793.7,1101.157,793.7Z" transform="translate(-1034.318 1312.52)" fill="none" stroke="#000" stroke-miterlimit="2.414" stroke-width="0.149"/>
    <path id="Tracé_4932" data-name="Tracé 4932" d="M1103.082,797.517a8.909,8.909,0,0,1-1.2-.484l-.012.023a8.951,8.951,0,0,0,1.2.485Z" transform="translate(-1034.906 1309.168)"/>
    <path id="Tracé_4933" data-name="Tracé 4933" d="M1113.3,766.495c.069,0,.121-.014.067-.088l-.116-.112-.025.15.074.05" transform="translate(-1044.262 1334.485)" fill="#ff0" fill-rule="evenodd"/>
    <path id="Tracé_4934" data-name="Tracé 4934" d="M1113.3,766.495c.069,0,.121-.014.067-.088l-.116-.112-.025.15Z" transform="translate(-1044.262 1334.485)" fill="none" stroke="#000" stroke-miterlimit="2.414" stroke-width="0.149"/>
    <path id="Tracé_4935" data-name="Tracé 4935" d="M1114.6,768.83c-.007.042-.014.083-.021.125l.048.049c.071.012.141-.039.092-.094l-.118-.081" transform="translate(-1045.374 1332.397)" fill="#ff0" fill-rule="evenodd"/>
    <path id="Tracé_4936" data-name="Tracé 4936" d="M1114.6,768.83c-.007.042-.014.083-.021.125l.048.049c.071.012.141-.039.092-.094Z" transform="translate(-1045.374 1332.397)" fill="none" stroke="#000" stroke-miterlimit="2.414" stroke-width="0.149"/>
    <path id="Tracé_4937" data-name="Tracé 4937" d="M1066.366,797.1a13.488,13.488,0,0,0,3.9.454,18.521,18.521,0,0,0,4.1-.454l-.506.579a13.491,13.491,0,0,1-6.992.05Z" transform="translate(-1005.664 1309.113)" fill="#ff0" fill-rule="evenodd"/>
    <path id="Tracé_4938" data-name="Tracé 4938" d="M1066.366,797.1a13.488,13.488,0,0,0,3.9.454,18.521,18.521,0,0,0,4.1-.454l-.506.579a13.491,13.491,0,0,1-6.992.05Z" transform="translate(-1005.664 1309.113)" fill="none" stroke="#000" stroke-miterlimit="2.414" stroke-width="0.149"/>
    <path id="Tracé_4939" data-name="Tracé 4939" d="M1068.913,799.893a18.494,18.494,0,0,0,1.864.344,12.348,12.348,0,0,0,1.6.126,20.234,20.234,0,0,0,3.563-.466l.006.025a20.239,20.239,0,0,1-3.569.467,12.407,12.407,0,0,1-1.6-.126,18.7,18.7,0,0,1-1.867-.345Z" transform="translate(-1007.756 1306.813)"/>
    <path id="Tracé_4940" data-name="Tracé 4940" d="M1067.145,797.842c.151.042,1.044.233,2.052.367a13.664,13.664,0,0,0,1.723.134,22.425,22.425,0,0,0,3.759-.467l.005.026a22.456,22.456,0,0,1-3.764.467,13.694,13.694,0,0,1-1.727-.134c-1.009-.134-1.9-.325-2.055-.367Z" transform="translate(-1006.3 1308.503)"/>
    <path id="Tracé_4941" data-name="Tracé 4941" d="M1063.555,783.279a9.757,9.757,0,0,1-1.82-.4l0-.545a10.843,10.843,0,0,0,1.819.388Z" transform="translate(-1001.848 1321.279)" fill="#ff0" fill-rule="evenodd"/>
    <path id="Tracé_4942" data-name="Tracé 4942" d="M1063.555,783.279a9.757,9.757,0,0,1-1.82-.4l0-.545a10.843,10.843,0,0,0,1.819.388Z" transform="translate(-1001.848 1321.279)" fill="none" stroke="#000" stroke-miterlimit="2.414" stroke-width="0.149"/>
    <path id="Tracé_4943" data-name="Tracé 4943" d="M1061.9,782.959a8,8,0,0,0,1.662.353l0,.026a8.074,8.074,0,0,1-1.668-.355Z" transform="translate(-1001.975 1320.76)"/>
    <path id="Tracé_4944" data-name="Tracé 4944" d="M1061.985,784.817a8.142,8.142,0,0,0,1.638.358l0,.026a8.168,8.168,0,0,1-1.645-.36Z" transform="translate(-1002.049 1319.23)"/>
    <path id="Tracé_4945" data-name="Tracé 4945" d="M1063.712,798.144c-.061,0-.134.01-.18-.07l.087-.145.093.215" transform="translate(-1003.33 1308.431)" fill="#ff0" fill-rule="evenodd"/>
    <path id="Tracé_4946" data-name="Tracé 4946" d="M1063.712,798.144c-.061,0-.134.01-.18-.07l.087-.145Z" transform="translate(-1003.33 1308.431)" fill="none" stroke="#000" stroke-miterlimit="2.414" stroke-width="0.149"/>
    <path id="Tracé_4947" data-name="Tracé 4947" d="M1062.465,796.017a.1.1,0,0,1-.145-.037l.039-.124.106.161" transform="translate(-1002.332 1310.138)" fill="#ff0" fill-rule="evenodd"/>
    <path id="Tracé_4948" data-name="Tracé 4948" d="M1062.465,796.017a.1.1,0,0,1-.145-.037l.039-.124Z" transform="translate(-1002.332 1310.138)" fill="none" stroke="#000" stroke-miterlimit="2.414" stroke-width="0.149"/>
    <path id="Tracé_4949" data-name="Tracé 4949" d="M1104.6,768.529a10.551,10.551,0,0,0,1.379-.351c.38-.16-.32-.475-.32-.475s-.724.191-.986.247-.073.579-.073.579" transform="translate(-1037.1 1333.326)" fill="#ff0" fill-rule="evenodd"/>
    <path id="Tracé_4950" data-name="Tracé 4950" d="M1104.6,768.529a10.551,10.551,0,0,0,1.379-.351c.38-.16-.32-.475-.32-.475s-.724.191-.986.247S1104.6,768.529,1104.6,768.529Z" transform="translate(-1037.1 1333.326)" fill="none" stroke="#000" stroke-miterlimit="2.414" stroke-width="0.149"/>
    <path id="Tracé_4951" data-name="Tracé 4951" d="M1105.614,768.828a8.671,8.671,0,0,0,1.084-.276l.01.024a8.646,8.646,0,0,1-1.089.277Zm-.055-.316a8.109,8.109,0,0,0,.975-.226l.01.024a8.075,8.075,0,0,1-.98.228Z" transform="translate(-1037.944 1332.845)"/>
    <path id="Tracé_4952" data-name="Tracé 4952" d="M1058.871,783.51a.1.1,0,0,1-.118-.113l.085-.161q.017.137.033.274" transform="translate(-999.394 1320.532)" fill="#ff0" fill-rule="evenodd"/>
    <path id="Tracé_4953" data-name="Tracé 4953" d="M1058.871,783.51a.1.1,0,0,1-.118-.113l.085-.161Q1058.855,783.373,1058.871,783.51Z" transform="translate(-999.394 1320.532)" fill="none" stroke="#000" stroke-miterlimit="2.414" stroke-width="0.149"/>
    <path id="Tracé_4954" data-name="Tracé 4954" d="M1058.842,781.038c-.037.01-.089.025-.089-.05l.067-.146c.007.065.015.13.022.2" transform="translate(-999.394 1322.503)" fill="#ff0" fill-rule="evenodd"/>
    <path id="Tracé_4955" data-name="Tracé 4955" d="M1058.842,781.038c-.037.01-.089.025-.089-.05l.067-.146C1058.827,780.908,1058.835,780.973,1058.842,781.038Z" transform="translate(-999.394 1322.503)" fill="none" stroke="#000" stroke-miterlimit="2.414" stroke-width="0.149"/>
    <path id="Tracé_4956" data-name="Tracé 4956" d="M1117.51,783.51a.1.1,0,0,0,.118-.113l-.085-.161-.033.274" transform="translate(-1047.787 1320.532)" fill="#ff0" fill-rule="evenodd"/>
    <path id="Tracé_4957" data-name="Tracé 4957" d="M1117.51,783.51a.1.1,0,0,0,.118-.113l-.085-.161Z" transform="translate(-1047.787 1320.532)" fill="none" stroke="#000" stroke-miterlimit="2.414" stroke-width="0.149"/>
    <path id="Tracé_4958" data-name="Tracé 4958" d="M1117.675,781.038c.037.01.089.025.089-.05l-.067-.146c-.007.065-.015.13-.022.2" transform="translate(-1047.923 1322.503)" fill="#ff0" fill-rule="evenodd"/>
    <path id="Tracé_4959" data-name="Tracé 4959" d="M1117.675,781.038c.037.01.089.025.089-.05l-.067-.146C1117.69,780.908,1117.682,780.973,1117.675,781.038Z" transform="translate(-1047.923 1322.503)" fill="none" stroke="#000" stroke-miterlimit="2.414" stroke-width="0.149"/>
    <path id="Tracé_4960" data-name="Tracé 4960" d="M1062.244,771.467s-.477-.343-.873-.679-.435-.509-.4-.551a.94.94,0,0,0,.059-.081h.357l1.449.569s.163.512.155.532-.746.212-.746.212" transform="translate(-1001.212 1331.307)" fill="#ff0" fill-rule="evenodd"/>
    <path id="Tracé_4961" data-name="Tracé 4961" d="M1062.244,771.467s-.477-.343-.873-.679-.435-.509-.4-.551a.94.94,0,0,0,.059-.081h.357l1.449.569s.163.512.155.532S1062.244,771.467,1062.244,771.467Z" transform="translate(-1001.212 1331.307)" fill="none" stroke="#000" stroke-miterlimit="2.414" stroke-width="0.149"/>
    <path id="Tracé_4962" data-name="Tracé 4962" d="M1063.472,772.935a8.877,8.877,0,0,0,1,.814l-.014.022a9,9,0,0,1-1.008-.817Z" transform="translate(-1003.266 1329.016)"/>
    <path id="Tracé_4963" data-name="Tracé 4963" d="M1104.869,783.279a9.757,9.757,0,0,0,1.82-.4l0-.545a10.856,10.856,0,0,1-1.819.388Z" transform="translate(-1037.375 1321.279)" fill="#ff0" fill-rule="evenodd"/>
    <path id="Tracé_4964" data-name="Tracé 4964" d="M1104.869,783.279a9.757,9.757,0,0,0,1.82-.4l0-.545a10.856,10.856,0,0,1-1.819.388Z" transform="translate(-1037.375 1321.279)" fill="none" stroke="#000" stroke-miterlimit="2.414" stroke-width="0.149"/>
    <path id="Tracé_4965" data-name="Tracé 4965" d="M1107.238,782.959a8,8,0,0,1-1.662.353l0,.026a8.084,8.084,0,0,0,1.668-.355Z" transform="translate(-1037.958 1320.76)"/>
    <path id="Tracé_4966" data-name="Tracé 4966" d="M1107.259,784.817a8.142,8.142,0,0,1-1.638.358l0,.026a8.171,8.171,0,0,0,1.645-.36Z" transform="translate(-1037.995 1319.23)"/>
    <path id="Tracé_4967" data-name="Tracé 4967" d="M1064.239,752.855a5.2,5.2,0,1,1-5.194,5.2,5.2,5.2,0,0,1,5.194-5.2m0,.553a4.651,4.651,0,1,1-4.637,4.651,4.644,4.644,0,0,1,4.637-4.651" transform="translate(-999.635 1345.555)" fill="#ff0" fill-rule="evenodd"/>
    <path id="Tracé_4968" data-name="Tracé 4968" d="M1064.239,752.855a5.2,5.2,0,1,1-5.194,5.2A5.2,5.2,0,0,1,1064.239,752.855Zm0,.553a4.651,4.651,0,1,1-4.637,4.651A4.644,4.644,0,0,1,1064.241,753.408Z" transform="translate(-999.635 1345.555)" fill="none" stroke="#000" stroke-miterlimit="2.414" stroke-width="0.149"/>
    <path id="Tracé_4969" data-name="Tracé 4969" d="M1064.867,753.621a5.069,5.069,0,1,1-5.059,5.069A5.064,5.064,0,0,1,1064.867,753.621Z" transform="translate(-1000.263 1344.924)" fill="none" stroke="#000" stroke-miterlimit="2.414" stroke-width="0.149"/>
    <path id="Tracé_4970" data-name="Tracé 4970" d="M1066.322,755.39a4.757,4.757,0,1,1-4.748,4.757A4.752,4.752,0,0,1,1066.322,755.39Z" transform="translate(-1001.717 1343.467)" fill="none" stroke="#000" stroke-miterlimit="2.414" stroke-width="0.149"/>
    <rect id="Rectangle_1495" data-name="Rectangle 1495" width="0.322" height="1.848" transform="translate(64.445 2098.398)" fill="#ff0"/>
    <rect id="Rectangle_1496" data-name="Rectangle 1496" width="0.322" height="1.848" transform="translate(64.445 2098.398)" fill="none" stroke="#000" stroke-miterlimit="2.414" stroke-width="0.149"/>
    <rect id="Rectangle_1497" data-name="Rectangle 1497" width="0.114" height="1.911" transform="translate(64.767 2098.336)" fill="#ff0"/>
    <rect id="Rectangle_1498" data-name="Rectangle 1498" width="0.114" height="1.911" transform="translate(64.767 2098.336)" fill="none" stroke="#000" stroke-miterlimit="2.414" stroke-width="0.149"/>
    <rect id="Rectangle_1499" data-name="Rectangle 1499" width="0.114" height="1.911" transform="translate(64.331 2098.336)" fill="#ff0"/>
    <rect id="Rectangle_1500" data-name="Rectangle 1500" width="0.114" height="1.911" transform="translate(64.331 2098.336)" fill="none" stroke="#000" stroke-miterlimit="2.414" stroke-width="0.149"/>
    <rect id="Rectangle_1501" data-name="Rectangle 1501" width="0.322" height="1.848" transform="translate(64.445 2106.981)" fill="#ff0"/>
    <rect id="Rectangle_1502" data-name="Rectangle 1502" width="0.322" height="1.848" transform="translate(64.445 2106.981)" fill="none" stroke="#000" stroke-miterlimit="2.414" stroke-width="0.149"/>
    <rect id="Rectangle_1503" data-name="Rectangle 1503" width="0.114" height="1.911" transform="translate(64.767 2106.981)" fill="#ff0"/>
    <rect id="Rectangle_1504" data-name="Rectangle 1504" width="0.114" height="1.911" transform="translate(64.767 2106.981)" fill="none" stroke="#000" stroke-miterlimit="2.414" stroke-width="0.149"/>
    <rect id="Rectangle_1505" data-name="Rectangle 1505" width="0.114" height="1.911" transform="translate(64.331 2106.981)" fill="#ff0"/>
    <rect id="Rectangle_1506" data-name="Rectangle 1506" width="0.114" height="1.911" transform="translate(64.331 2106.981)" fill="none" stroke="#000" stroke-miterlimit="2.414" stroke-width="0.149"/>
    <path id="Tracé_4971" data-name="Tracé 4971" d="M1062.379,792.884a3.29,3.29,0,0,0,.215.364,1.8,1.8,0,0,1,.436-.254c.25-.1,1.348-.4,1.348-.4l-.215-.409a8.165,8.165,0,0,0-1.431.44c-.334.2-.353.256-.353.256" transform="translate(-1002.38 1313.159)" fill="#ff0" fill-rule="evenodd"/>
    <path id="Tracé_4972" data-name="Tracé 4972" d="M1062.379,792.884a3.29,3.29,0,0,0,.215.364,1.8,1.8,0,0,1,.436-.254c.25-.1,1.348-.4,1.348-.4l-.215-.409a8.165,8.165,0,0,0-1.431.44C1062.4,792.824,1062.379,792.884,1062.379,792.884Z" transform="translate(-1002.38 1313.159)" fill="none" stroke="#000" stroke-miterlimit="2.414" stroke-width="0.149"/>
    <path id="Tracé_4973" data-name="Tracé 4973" d="M1062.008,792.607s.05-.181.695-.4a10.608,10.608,0,0,1,1.193-.33l-.008.115s-.773.176-1.169.322a1.3,1.3,0,0,0-.655.388Z" transform="translate(-1002.075 1313.416)" fill="#ff0" fill-rule="evenodd"/>
    <path id="Tracé_4974" data-name="Tracé 4974" d="M1062.008,792.607s.05-.181.695-.4a10.608,10.608,0,0,1,1.193-.33l-.008.115s-.773.176-1.169.322a1.3,1.3,0,0,0-.655.388Z" transform="translate(-1002.075 1313.416)" fill="none" stroke="#000" stroke-miterlimit="2.414" stroke-width="0.149"/>
    <path id="Tracé_4975" data-name="Tracé 4975" d="M1063.256,794.867s.05-.181.695-.4a10.572,10.572,0,0,1,1.193-.33l-.008.115s-.773.176-1.169.322a1.3,1.3,0,0,0-.656.388Z" transform="translate(-1003.103 1311.555)" fill="#ff0" fill-rule="evenodd"/>
    <path id="Tracé_4976" data-name="Tracé 4976" d="M1063.256,794.867s.05-.181.695-.4a10.572,10.572,0,0,1,1.193-.33l-.008.115s-.773.176-1.169.322a1.3,1.3,0,0,0-.656.388Z" transform="translate(-1003.103 1311.555)" fill="none" stroke="#000" stroke-miterlimit="2.414" stroke-width="0.149"/>
    <path id="Tracé_4977" data-name="Tracé 4977" d="M1058.992,777.667s0,.237,0,.4l.692-.337.971-.256.509-.1-.026-.442-1.078.232-.662.233Z" transform="translate(-999.59 1325.724)" fill="#ff0" fill-rule="evenodd"/>
    <path id="Tracé_4978" data-name="Tracé 4978" d="M1058.992,777.667s0,.237,0,.4l.692-.337.971-.256.509-.1-.026-.442-1.078.232-.662.233Z" transform="translate(-999.59 1325.724)" fill="none" stroke="#000" stroke-miterlimit="2.414" stroke-width="0.149"/>
    <path id="Tracé_4979" data-name="Tracé 4979" d="M1058.712,780s.173-.278,1.046-.511a8.5,8.5,0,0,1,1.193-.262l-.04-.116a11.653,11.653,0,0,0-1.177.254,2.465,2.465,0,0,0-1.031.492Z" transform="translate(-999.353 1323.934)" fill="#ff0" fill-rule="evenodd"/>
    <path id="Tracé_4980" data-name="Tracé 4980" d="M1058.712,780s.173-.278,1.046-.511a8.5,8.5,0,0,1,1.193-.262l-.04-.116a11.653,11.653,0,0,0-1.177.254,2.465,2.465,0,0,0-1.031.492Z" transform="translate(-999.353 1323.934)" fill="none" stroke="#000" stroke-miterlimit="2.414" stroke-width="0.149"/>
    <path id="Tracé_4981" data-name="Tracé 4981" d="M1058.712,777.514s.173-.278,1.046-.511a8.5,8.5,0,0,1,1.193-.262l-.04-.116a11.586,11.586,0,0,0-1.177.254,2.468,2.468,0,0,0-1.031.492Z" transform="translate(-999.353 1325.978)" fill="#ff0" fill-rule="evenodd"/>
    <path id="Tracé_4982" data-name="Tracé 4982" d="M1058.712,777.514s.173-.278,1.046-.511a8.5,8.5,0,0,1,1.193-.262l-.04-.116a11.586,11.586,0,0,0-1.177.254,2.468,2.468,0,0,0-1.031.492Z" transform="translate(-999.353 1325.978)" fill="none" stroke="#000" stroke-miterlimit="2.414" stroke-width="0.149"/>
    <path id="Tracé_4983" data-name="Tracé 4983" d="M1107.775,777.667s0,.237,0,.4l-.692-.337-.971-.256-.509-.1.026-.442,1.078.232.661.233Z" transform="translate(-1037.976 1325.724)" fill="#ff0" fill-rule="evenodd"/>
    <path id="Tracé_4984" data-name="Tracé 4984" d="M1107.775,777.667s0,.237,0,.4l-.692-.337-.971-.256-.509-.1.026-.442,1.078.232.661.233Z" transform="translate(-1037.976 1325.724)" fill="none" stroke="#000" stroke-miterlimit="2.414" stroke-width="0.149"/>
    <path id="Tracé_4985" data-name="Tracé 4985" d="M1107.725,780s-.173-.278-1.046-.511a8.494,8.494,0,0,0-1.193-.262l.04-.116a11.653,11.653,0,0,1,1.177.254,2.462,2.462,0,0,1,1.031.492Z" transform="translate(-1037.884 1323.934)" fill="#ff0" fill-rule="evenodd"/>
    <path id="Tracé_4986" data-name="Tracé 4986" d="M1107.725,780s-.173-.278-1.046-.511a8.494,8.494,0,0,0-1.193-.262l.04-.116a11.653,11.653,0,0,1,1.177.254,2.462,2.462,0,0,1,1.031.492Z" transform="translate(-1037.884 1323.934)" fill="none" stroke="#000" stroke-miterlimit="2.414" stroke-width="0.149"/>
    <path id="Tracé_4987" data-name="Tracé 4987" d="M1107.725,777.514s-.173-.278-1.046-.511a8.494,8.494,0,0,0-1.193-.262l.04-.116a11.586,11.586,0,0,1,1.177.254,2.465,2.465,0,0,1,1.031.492Z" transform="translate(-1037.884 1325.978)" fill="#ff0" fill-rule="evenodd"/>
    <path id="Tracé_4988" data-name="Tracé 4988" d="M1107.725,777.514s-.173-.278-1.046-.511a8.494,8.494,0,0,0-1.193-.262l.04-.116a11.586,11.586,0,0,1,1.177.254,2.465,2.465,0,0,1,1.031.492Z" transform="translate(-1037.884 1325.978)" fill="none" stroke="#000" stroke-miterlimit="2.414" stroke-width="0.149"/>
    <path id="Tracé_4989" data-name="Tracé 4989" d="M1106.847,764.179l.257.463-.708-.261-.923-.2.021-.412.753.194Z" transform="translate(-1037.874 1336.564)" fill="#ff0" fill-rule="evenodd"/>
    <path id="Tracé_4990" data-name="Tracé 4990" d="M1106.847,764.179l.257.463-.708-.261-.923-.2.021-.412.753.194Z" transform="translate(-1037.874 1336.564)" fill="none" stroke="#000" stroke-miterlimit="2.414" stroke-width="0.149"/>
    <path id="Tracé_4991" data-name="Tracé 4991" d="M1105.865,763.482a4.622,4.622,0,0,1,1.349.455l.079.134c.015.026.016.023-.007.006a2.351,2.351,0,0,0-.723-.3c-.531-.144-.687-.166-.687-.166Z" transform="translate(-1038.196 1336.802)" fill="#ff0" fill-rule="evenodd"/>
    <path id="Tracé_4992" data-name="Tracé 4992" d="M1105.865,763.482a4.622,4.622,0,0,1,1.349.455l.079.134c.015.026.016.023-.007.006a2.351,2.351,0,0,0-.723-.3c-.531-.144-.687-.166-.687-.166Z" transform="translate(-1038.196 1336.802)" fill="none" stroke="#000" stroke-miterlimit="2.414" stroke-width="0.149"/>
    <path id="Tracé_4993" data-name="Tracé 4993" d="M1107.506,766.441a4.616,4.616,0,0,0-1.592-.458l.011.1a7.727,7.727,0,0,1,1.628.466c.025.012.035.023.018,0Z" transform="translate(-1038.236 1334.742)" fill="#ff0" fill-rule="evenodd"/>
    <path id="Tracé_4994" data-name="Tracé 4994" d="M1107.506,766.441a4.616,4.616,0,0,0-1.592-.458l.011.1a7.727,7.727,0,0,1,1.628.466c.025.012.035.023.018,0Z" transform="translate(-1038.236 1334.742)" fill="none" stroke="#000" stroke-miterlimit="2.414" stroke-width="0.149"/>
    <path id="Tracé_4995" data-name="Tracé 4995" d="M1063.678,763.968l-.28.449.72-.225.932-.152v-.412l-.761.155Z" transform="translate(-1003.219 1336.681)" fill="#ff0" fill-rule="evenodd"/>
    <path id="Tracé_4996" data-name="Tracé 4996" d="M1063.678,763.968l-.28.449.72-.225.932-.152v-.412l-.761.155Z" transform="translate(-1003.219 1336.681)" fill="none" stroke="#000" stroke-miterlimit="2.414" stroke-width="0.149"/>
    <path id="Tracé_4997" data-name="Tracé 4997" d="M1065.652,763.327a4.619,4.619,0,0,0-1.371.385l-.085.129c-.016.025-.018.022.007.006a2.35,2.35,0,0,1,.737-.265c.538-.117.695-.131.695-.131Z" transform="translate(-1003.866 1336.93)" fill="#ff0" fill-rule="evenodd"/>
    <path id="Tracé_4998" data-name="Tracé 4998" d="M1065.652,763.327a4.619,4.619,0,0,0-1.371.385l-.085.129c-.016.025-.018.022.007.006a2.35,2.35,0,0,1,.737-.265c.538-.117.695-.131.695-.131Z" transform="translate(-1003.866 1336.93)" fill="none" stroke="#000" stroke-miterlimit="2.414" stroke-width="0.149"/>
    <path id="Tracé_4999" data-name="Tracé 4999" d="M1062.812,766.2a4.61,4.61,0,0,1,1.614-.376l-.016.1a7.725,7.725,0,0,0-1.65.382c-.026.011-.036.021-.018-.006Z" transform="translate(-1002.672 1334.875)" fill="#ff0" fill-rule="evenodd"/>
    <path id="Tracé_5000" data-name="Tracé 5000" d="M1062.812,766.2a4.61,4.61,0,0,1,1.614-.376l-.016.1a7.725,7.725,0,0,0-1.65.382c-.026.011-.036.021-.018-.006Z" transform="translate(-1002.672 1334.875)" fill="none" stroke="#000" stroke-miterlimit="2.414" stroke-width="0.149"/>
    <path id="Tracé_5001" data-name="Tracé 5001" d="M1063.191,765.8l-.085.095s-.047.063.026.172l.154-.27Z" transform="translate(-1002.967 1334.898)" fill="#ff0" fill-rule="evenodd"/>
    <path id="Tracé_5002" data-name="Tracé 5002" d="M1063.191,765.8l-.085.095s-.047.063.026.172l.154-.27Z" transform="translate(-1002.967 1334.898)" fill="none" stroke="#000" stroke-miterlimit="2.414" stroke-width="0.149"/>
    <path id="Tracé_5003" data-name="Tracé 5003" d="M1061.553,766.473l.408-.759.274.009.729.212.341.157s.021,1,0,1-.527-.262-.527-.262l-.907-.312Z" transform="translate(-1001.7 1334.964)" fill="#ff0" fill-rule="evenodd"/>
    <path id="Tracé_5004" data-name="Tracé 5004" d="M1061.553,766.473l.408-.759.274.009.729.212.341.157s.021,1,0,1-.527-.262-.527-.262l-.907-.312Z" transform="translate(-1001.7 1334.964)" fill="none" stroke="#000" stroke-miterlimit="2.414" stroke-width="0.149"/>
    <path id="Tracé_5005" data-name="Tracé 5005" d="M1064.578,765.9a4.045,4.045,0,0,0-.892-.334c-.439-.094-.51.024-.51.024l.062-.119s.068-.125.672.051a2.146,2.146,0,0,1,.67.249Z" transform="translate(-1003.037 1335.201)" fill="#ff0" fill-rule="evenodd"/>
    <path id="Tracé_5006" data-name="Tracé 5006" d="M1064.578,765.9a4.045,4.045,0,0,0-.892-.334c-.439-.094-.51.024-.51.024l.062-.119s.068-.125.672.051a2.146,2.146,0,0,1,.67.249Z" transform="translate(-1003.037 1335.201)" fill="none" stroke="#000" stroke-miterlimit="2.414" stroke-width="0.149"/>
    <path id="Tracé_5007" data-name="Tracé 5007" d="M1062.759,770.332a4.13,4.13,0,0,0-1.7-.544l-.082.149c.245-.145.987.164,1.243.274.324.139.559.26.559.26Z" transform="translate(-1001.229 1331.617)" fill="#ff0" fill-rule="evenodd"/>
    <path id="Tracé_5008" data-name="Tracé 5008" d="M1062.759,770.332a4.13,4.13,0,0,0-1.7-.544l-.082.149c.245-.145.987.164,1.243.274.324.139.559.26.559.26Z" transform="translate(-1001.229 1331.617)" fill="none" stroke="#000" stroke-miterlimit="2.414" stroke-width="0.149"/>
    <path id="Tracé_5009" data-name="Tracé 5009" d="M1113.965,795.835l-.042.12s-.032.071-.163.061l.161-.265Z" transform="translate(-1044.698 1310.225)" fill="#ff0" fill-rule="evenodd"/>
    <path id="Tracé_5010" data-name="Tracé 5010" d="M1113.965,795.835l-.042.12s-.032.071-.163.061l.161-.265Z" transform="translate(-1044.698 1310.225)" fill="none" stroke="#000" stroke-miterlimit="2.414" stroke-width="0.149"/>
    <path id="Tracé_5011" data-name="Tracé 5011" d="M1105.567,789.758l.466-.725-.141-.235-.539-.534-1-.723s-.234.929-.224.948.53.37.53.37l.713.642Z" transform="translate(-1036.77 1316.987)" fill="#ff0" fill-rule="evenodd"/>
    <path id="Tracé_5012" data-name="Tracé 5012" d="M1105.567,789.758l.466-.725-.141-.235-.539-.534-1-.723s-.234.929-.224.948.53.37.53.37l.713.642Z" transform="translate(-1036.77 1316.987)" fill="none" stroke="#000" stroke-miterlimit="2.414" stroke-width="0.149"/>
    <path id="Tracé_5013" data-name="Tracé 5013" d="M1105.707,787.457s.657.507.7.536a3.893,3.893,0,0,1,.657.571c.3.338.227.457.227.457l.074-.112s.076-.12-.37-.562a4.323,4.323,0,0,0-.467-.419c-.057-.041-.786-.6-.786-.6Z" transform="translate(-1038.066 1317.158)" fill="#ff0" fill-rule="evenodd"/>
    <path id="Tracé_5014" data-name="Tracé 5014" d="M1105.707,787.457s.657.507.7.536a3.893,3.893,0,0,1,.657.571c.3.338.227.457.227.457l.074-.112s.076-.12-.37-.562a4.323,4.323,0,0,0-.467-.419c-.057-.041-.786-.6-.786-.6Z" transform="translate(-1038.066 1317.158)" fill="none" stroke="#000" stroke-miterlimit="2.414" stroke-width="0.149"/>
    <path id="Tracé_5015" data-name="Tracé 5015" d="M1103.238,792.359c.4.252,1.419.989,1.519,1.369l-.091.144c.008-.284-.622-.783-.843-.954s-.473-.346-.719-.512Z" transform="translate(-1035.923 1313.019)" fill="#ff0" fill-rule="evenodd"/>
    <path id="Tracé_5016" data-name="Tracé 5016" d="M1103.238,792.359c.4.252,1.419.989,1.519,1.369l-.091.144c.008-.284-.622-.783-.843-.954s-.473-.346-.719-.512Z" transform="translate(-1035.923 1313.019)" fill="none" stroke="#000" stroke-miterlimit="2.414" stroke-width="0.149"/>
    <path id="Tracé_5017" data-name="Tracé 5017" d="M1071.467,762.844h5.993v4a3,3,0,0,1-5.993,0Z" transform="translate(-1009.865 1337.327)" fill="#ff1612" fill-rule="evenodd"/>
    <path id="Tracé_5018" data-name="Tracé 5018" d="M1070.787,762.05h6.232v4.158a3.116,3.116,0,0,1-6.232,0Z" transform="translate(-1009.305 1337.981)" fill="#fff" fill-rule="evenodd"/>
    <path id="Tracé_5019" data-name="Tracé 5019" d="M1071.467,762.844h5.993v4a3,3,0,0,1-5.993,0Z" transform="translate(-1009.865 1337.327)" fill="#ff1612" fill-rule="evenodd"/>
    <path id="Tracé_5020" data-name="Tracé 5020" d="M1087.879,764.224l.028-.4h.177l.028.4Z" transform="translate(-1023.382 1336.52)" fill="#ff0" fill-rule="evenodd"/>
    <path id="Tracé_5021" data-name="Tracé 5021" d="M1087.879,764.224l.028-.4h.177l.028.4Z" transform="translate(-1023.382 1336.52)" fill="none" stroke="#000" stroke-miterlimit="2.414" stroke-width="0.119"/>
    <path id="Tracé_5022" data-name="Tracé 5022" d="M1088.4,764.6h.046v-.086a.023.023,0,0,0-.046,0Z" transform="translate(-1023.815 1335.97)" fill-rule="evenodd"/>
    <path id="Tracé_5023" data-name="Tracé 5023" d="M1086.283,765.054l.014-.218h.2l.018.22Z" transform="translate(-1022.068 1335.687)" fill="#ff0" fill-rule="evenodd"/>
    <path id="Tracé_5024" data-name="Tracé 5024" d="M1086.283,765.054l.014-.218h.2l.018.22Z" transform="translate(-1022.068 1335.687)" fill="none" stroke="#000" stroke-miterlimit="2.414" stroke-width="0.119"/>
    <path id="Tracé_5025" data-name="Tracé 5025" d="M1089.464,765.054l.014-.218h.2l.018.22Z" transform="translate(-1024.688 1335.687)" fill="#ff0" fill-rule="evenodd"/>
    <path id="Tracé_5026" data-name="Tracé 5026" d="M1089.464,765.054l.014-.218h.2l.018.22Z" transform="translate(-1024.688 1335.687)" fill="none" stroke="#000" stroke-miterlimit="2.414" stroke-width="0.119"/>
    <path id="Tracé_5027" data-name="Tracé 5027" d="M1086.063,767.011l.049-.38h.775l.05.392Z" transform="translate(-1021.887 1334.209)" fill="#ff0" fill-rule="evenodd"/>
    <path id="Tracé_5028" data-name="Tracé 5028" d="M1086.063,767.011l.049-.38h.775l.05.392Z" transform="translate(-1021.887 1334.209)" fill="none" stroke="#000" stroke-miterlimit="2.414" stroke-width="0.119"/>
    <path id="Tracé_5029" data-name="Tracé 5029" d="M1087.307,767.143s-.005-.282.214-.347a.338.338,0,0,1,.218.345Z" transform="translate(-1022.911 1334.073)" fill="#ff0" fill-rule="evenodd"/>
    <path id="Tracé_5030" data-name="Tracé 5030" d="M1087.307,767.143s-.005-.282.214-.347a.338.338,0,0,1,.218.345Z" transform="translate(-1022.911 1334.073)" fill="none" stroke="#000" stroke-miterlimit="2.414" stroke-width="0.119"/>
    <path id="Tracé_5031" data-name="Tracé 5031" d="M1087.83,767.623s0-.2.123-.244c0,0,.123.041.126.243Z" transform="translate(-1023.342 1333.592)" fill="#ff0" fill-rule="evenodd"/>
    <path id="Tracé_5032" data-name="Tracé 5032" d="M1087.83,767.623s0-.2.123-.244c0,0,.123.041.126.243Z" transform="translate(-1023.342 1333.592)" fill="none" stroke="#000" stroke-miterlimit="2.414" stroke-width="0.131"/>
    <path id="Tracé_5033" data-name="Tracé 5033" d="M1085.869,768.655h.872a.039.039,0,0,1,0,.078h-.872a.039.039,0,1,1,0-.078" transform="translate(-1021.695 1332.541)" fill="#ff0" fill-rule="evenodd"/>
    <path id="Tracé_5034" data-name="Tracé 5034" d="M1086.054,766.451h.81a.038.038,0,0,0,0-.076h-.81a.038.038,0,0,0,0,.076" transform="translate(-1021.849 1334.418)" fill="#ff0" fill-rule="evenodd"/>
    <path id="Tracé_5035" data-name="Tracé 5035" d="M1085.969,765.949h.84a.038.038,0,1,1,0,.076h-.84a.038.038,0,0,1,0-.076" transform="translate(-1021.779 1334.77)" fill="#ff0" fill-rule="evenodd"/>
    <path id="Tracé_5036" data-name="Tracé 5036" d="M1086.813,765.268h.046V765.2a.023.023,0,1,0-.046,0Z" transform="translate(-1022.505 1335.403)" fill-rule="evenodd"/>
    <path id="Tracé_5037" data-name="Tracé 5037" d="M1089.994,765.268h.046V765.2a.023.023,0,1,0-.046,0Z" transform="translate(-1025.124 1335.403)" fill-rule="evenodd"/>
    <path id="Tracé_5038" data-name="Tracé 5038" d="M1086.191,764.307h.168c.032,0,.045-.016.045-.035v-.092a.012.012,0,0,0-.013-.013h-.041c-.011,0-.012.005-.012.014v.032c0,.006,0,.012-.011.012h-.032c-.006,0-.009-.005-.009-.012v-.035c0-.007,0-.009-.013-.009h-.039c-.011,0-.012.005-.012.012v.038c0,.006,0,.009-.009.009h-.031c-.008,0-.01,0-.01-.011v-.036c0-.007,0-.01-.009-.01h-.037a.014.014,0,0,0-.015.015v.091c0,.022.018.031.08.031" transform="translate(-1021.926 1336.238)" fill="#ff0" fill-rule="evenodd"/>
    <path id="Tracé_5039" data-name="Tracé 5039" d="M1086.191,764.307h.168c.032,0,.045-.016.045-.035v-.092a.012.012,0,0,0-.013-.013h-.041c-.011,0-.012.005-.012.014v.032c0,.006,0,.012-.011.012h-.032c-.006,0-.009-.005-.009-.012v-.035c0-.007,0-.009-.013-.009h-.039c-.011,0-.012.005-.012.012v.038c0,.006,0,.009-.009.009h-.031c-.008,0-.01,0-.01-.011v-.036c0-.007,0-.01-.009-.01h-.037a.014.014,0,0,0-.015.015v.091C1086.111,764.3,1086.129,764.308,1086.191,764.307Z" transform="translate(-1021.926 1336.238)" fill="none" stroke="#000" stroke-miterlimit="2.414" stroke-width="0.119"/>
    <path id="Tracé_5040" data-name="Tracé 5040" d="M1087.789,763.362h.168c.032,0,.045-.016.045-.035v-.092a.012.012,0,0,0-.013-.013h-.04c-.011,0-.013.005-.013.014v.032c0,.006,0,.012-.011.012h-.032c-.006,0-.008-.006-.008-.012v-.035c0-.008,0-.009-.013-.009h-.039c-.011,0-.012.005-.012.012v.038c0,.006,0,.009-.009.009h-.031c-.008,0-.01,0-.01-.011v-.036c0-.007,0-.01-.009-.01h-.037a.014.014,0,0,0-.015.015v.091c0,.022.018.031.08.031" transform="translate(-1023.242 1337.016)" fill="#ff0" fill-rule="evenodd"/>
    <path id="Tracé_5041" data-name="Tracé 5041" d="M1087.789,763.362h.168c.032,0,.045-.016.045-.035v-.092a.012.012,0,0,0-.013-.013h-.04c-.011,0-.013.005-.013.014v.032c0,.006,0,.012-.011.012h-.032c-.006,0-.008-.006-.008-.012v-.035c0-.008,0-.009-.013-.009h-.039c-.011,0-.012.005-.012.012v.038c0,.006,0,.009-.009.009h-.031c-.008,0-.01,0-.01-.011v-.036c0-.007,0-.01-.009-.01h-.037a.014.014,0,0,0-.015.015v.091C1087.709,763.354,1087.727,763.363,1087.789,763.362Z" transform="translate(-1023.242 1337.016)" fill="none" stroke="#000" stroke-miterlimit="2.414" stroke-width="0.119"/>
    <path id="Tracé_5042" data-name="Tracé 5042" d="M1089.372,764.307h.168c.032,0,.045-.016.045-.035v-.092a.012.012,0,0,0-.013-.013h-.04c-.011,0-.013.005-.013.014v.032c0,.006,0,.012-.011.012h-.032c-.006,0-.009-.005-.009-.012v-.035c0-.007,0-.009-.013-.009h-.039c-.011,0-.012.005-.012.012v.038c0,.006,0,.009-.009.009h-.031c-.008,0-.01,0-.01-.011v-.036c0-.007,0-.01-.009-.01h-.037a.014.014,0,0,0-.015.015v.091c0,.022.018.031.08.031" transform="translate(-1024.546 1336.238)" fill="#ff0" fill-rule="evenodd"/>
    <path id="Tracé_5043" data-name="Tracé 5043" d="M1089.372,764.307h.168c.032,0,.045-.016.045-.035v-.092a.012.012,0,0,0-.013-.013h-.04c-.011,0-.013.005-.013.014v.032c0,.006,0,.012-.011.012h-.032c-.006,0-.009-.005-.009-.012v-.035c0-.007,0-.009-.013-.009h-.039c-.011,0-.012.005-.012.012v.038c0,.006,0,.009-.009.009h-.031c-.008,0-.01,0-.01-.011v-.036c0-.007,0-.01-.009-.01h-.037a.014.014,0,0,0-.015.015v.091C1089.292,764.3,1089.31,764.308,1089.372,764.307Z" transform="translate(-1024.546 1336.238)" fill="none" stroke="#000" stroke-miterlimit="2.414" stroke-width="0.119"/>
    <path id="Tracé_5044" data-name="Tracé 5044" d="M1074.293,764.224l.028-.4h.177l.028.4Z" transform="translate(-1012.193 1336.52)" fill="#ff0" fill-rule="evenodd"/>
    <path id="Tracé_5045" data-name="Tracé 5045" d="M1074.293,764.224l.028-.4h.177l.028.4Z" transform="translate(-1012.193 1336.52)" fill="none" stroke="#000" stroke-miterlimit="2.414" stroke-width="0.119"/>
    <path id="Tracé_5046" data-name="Tracé 5046" d="M1074.818,764.6h.046v-.086a.023.023,0,1,0-.046,0Z" transform="translate(-1012.625 1335.97)" fill-rule="evenodd"/>
    <path id="Tracé_5047" data-name="Tracé 5047" d="M1072.7,765.054l.014-.218h.2l.018.22Z" transform="translate(-1010.878 1335.687)" fill="#ff0" fill-rule="evenodd"/>
    <path id="Tracé_5048" data-name="Tracé 5048" d="M1072.7,765.054l.014-.218h.2l.018.22Z" transform="translate(-1010.878 1335.687)" fill="none" stroke="#000" stroke-miterlimit="2.414" stroke-width="0.119"/>
    <path id="Tracé_5049" data-name="Tracé 5049" d="M1075.878,765.054l.014-.218h.2l.018.22Z" transform="translate(-1013.498 1335.687)" fill="#ff0" fill-rule="evenodd"/>
    <path id="Tracé_5050" data-name="Tracé 5050" d="M1075.878,765.054l.014-.218h.2l.018.22Z" transform="translate(-1013.498 1335.687)" fill="none" stroke="#000" stroke-miterlimit="2.414" stroke-width="0.119"/>
    <path id="Tracé_5051" data-name="Tracé 5051" d="M1072.478,767.011l.048-.38h.775l.05.392Z" transform="translate(-1010.698 1334.209)" fill="#ff0" fill-rule="evenodd"/>
    <path id="Tracé_5052" data-name="Tracé 5052" d="M1072.478,767.011l.048-.38h.775l.05.392Z" transform="translate(-1010.698 1334.209)" fill="none" stroke="#000" stroke-miterlimit="2.414" stroke-width="0.119"/>
    <path id="Tracé_5053" data-name="Tracé 5053" d="M1073.721,767.143s-.005-.282.214-.347a.338.338,0,0,1,.219.345Z" transform="translate(-1011.722 1334.073)" fill="#ff0" fill-rule="evenodd"/>
    <path id="Tracé_5054" data-name="Tracé 5054" d="M1073.721,767.143s-.005-.282.214-.347a.338.338,0,0,1,.219.345Z" transform="translate(-1011.722 1334.073)" fill="none" stroke="#000" stroke-miterlimit="2.414" stroke-width="0.119"/>
    <path id="Tracé_5055" data-name="Tracé 5055" d="M1074.244,767.623s0-.2.123-.244c0,0,.123.041.126.243Z" transform="translate(-1012.152 1333.592)" fill="#ff0" fill-rule="evenodd"/>
    <path id="Tracé_5056" data-name="Tracé 5056" d="M1074.244,767.623s0-.2.123-.244c0,0,.123.041.126.243Z" transform="translate(-1012.152 1333.592)" fill="none" stroke="#000" stroke-miterlimit="2.414" stroke-width="0.131"/>
    <path id="Tracé_5057" data-name="Tracé 5057" d="M1072.283,768.655h.872a.039.039,0,1,1,0,.078h-.872a.039.039,0,1,1,0-.078" transform="translate(-1010.505 1332.541)" fill="#ff0" fill-rule="evenodd"/>
    <path id="Tracé_5058" data-name="Tracé 5058" d="M1072.469,766.451h.81a.038.038,0,0,0,0-.076h-.81a.038.038,0,0,0,0,.076" transform="translate(-1010.66 1334.418)" fill="#ff0" fill-rule="evenodd"/>
    <path id="Tracé_5059" data-name="Tracé 5059" d="M1072.383,765.949h.84a.038.038,0,0,1,0,.076h-.84a.038.038,0,0,1,0-.076" transform="translate(-1010.589 1334.77)" fill="#ff0" fill-rule="evenodd"/>
    <path id="Tracé_5060" data-name="Tracé 5060" d="M1073.227,765.268h.046V765.2a.023.023,0,1,0-.046,0Z" transform="translate(-1011.315 1335.403)" fill-rule="evenodd"/>
    <path id="Tracé_5061" data-name="Tracé 5061" d="M1076.408,765.268h.046V765.2a.023.023,0,0,0-.046,0Z" transform="translate(-1013.935 1335.403)" fill-rule="evenodd"/>
    <path id="Tracé_5062" data-name="Tracé 5062" d="M1072.606,764.307h.168c.032,0,.045-.016.045-.035v-.092c0-.011-.007-.013-.014-.013h-.04c-.011,0-.013.005-.013.014v.032c0,.006,0,.012-.01.012h-.032c-.006,0-.009-.005-.009-.012v-.035c0-.007,0-.009-.012-.009h-.039c-.012,0-.012.005-.012.012v.038c0,.006,0,.009-.009.009h-.031c-.008,0-.01,0-.01-.011v-.036c0-.007,0-.01-.009-.01h-.037a.014.014,0,0,0-.015.015v.091c0,.022.018.031.08.031" transform="translate(-1010.738 1336.238)" fill="#ff0" fill-rule="evenodd"/>
    <path id="Tracé_5063" data-name="Tracé 5063" d="M1072.606,764.307h.168c.032,0,.045-.016.045-.035v-.092c0-.011-.007-.013-.014-.013h-.04c-.011,0-.013.005-.013.014v.032c0,.006,0,.012-.01.012h-.032c-.006,0-.009-.005-.009-.012v-.035c0-.007,0-.009-.012-.009h-.039c-.012,0-.012.005-.012.012v.038c0,.006,0,.009-.009.009h-.031c-.008,0-.01,0-.01-.011v-.036c0-.007,0-.01-.009-.01h-.037a.014.014,0,0,0-.015.015v.091C1072.526,764.3,1072.544,764.308,1072.606,764.307Z" transform="translate(-1010.738 1336.238)" fill="none" stroke="#000" stroke-miterlimit="2.414" stroke-width="0.119"/>
    <path id="Tracé_5064" data-name="Tracé 5064" d="M1074.2,763.362h.168c.032,0,.045-.016.045-.035v-.092a.012.012,0,0,0-.013-.013h-.04c-.011,0-.013.005-.013.014v.032c0,.006,0,.012-.011.012h-.032c-.006,0-.009-.006-.009-.012v-.035c0-.008,0-.009-.013-.009h-.039c-.011,0-.012.005-.012.012v.038c0,.006,0,.009-.009.009h-.031c-.008,0-.01,0-.01-.011v-.036c0-.007,0-.01-.009-.01h-.037a.014.014,0,0,0-.015.015v.091c0,.022.018.031.08.031" transform="translate(-1012.053 1337.016)" fill="#ff0" fill-rule="evenodd"/>
    <path id="Tracé_5065" data-name="Tracé 5065" d="M1074.2,763.362h.168c.032,0,.045-.016.045-.035v-.092a.012.012,0,0,0-.013-.013h-.04c-.011,0-.013.005-.013.014v.032c0,.006,0,.012-.011.012h-.032c-.006,0-.009-.006-.009-.012v-.035c0-.008,0-.009-.013-.009h-.039c-.011,0-.012.005-.012.012v.038c0,.006,0,.009-.009.009h-.031c-.008,0-.01,0-.01-.011v-.036c0-.007,0-.01-.009-.01h-.037a.014.014,0,0,0-.015.015v.091C1074.123,763.354,1074.141,763.363,1074.2,763.362Z" transform="translate(-1012.053 1337.016)" fill="none" stroke="#000" stroke-miterlimit="2.414" stroke-width="0.119"/>
    <path id="Tracé_5066" data-name="Tracé 5066" d="M1075.786,764.307h.168c.032,0,.045-.016.045-.035v-.092a.012.012,0,0,0-.013-.013h-.041c-.011,0-.013.005-.013.014v.032c0,.006,0,.012-.01.012h-.032c-.006,0-.008-.005-.008-.012v-.035c0-.007,0-.009-.013-.009h-.04c-.011,0-.012.005-.012.012v.038c0,.006,0,.009-.009.009h-.031c-.008,0-.01,0-.01-.011v-.036c0-.007,0-.01-.009-.01h-.037a.014.014,0,0,0-.015.015v.091c0,.022.018.031.08.031" transform="translate(-1013.357 1336.238)" fill="#ff0" fill-rule="evenodd"/>
    <path id="Tracé_5067" data-name="Tracé 5067" d="M1075.786,764.307h.168c.032,0,.045-.016.045-.035v-.092a.012.012,0,0,0-.013-.013h-.041c-.011,0-.013.005-.013.014v.032c0,.006,0,.012-.01.012h-.032c-.006,0-.008-.005-.008-.012v-.035c0-.007,0-.009-.013-.009h-.04c-.011,0-.012.005-.012.012v.038c0,.006,0,.009-.009.009h-.031c-.008,0-.01,0-.01-.011v-.036c0-.007,0-.01-.009-.01h-.037a.014.014,0,0,0-.015.015v.091C1075.706,764.3,1075.724,764.308,1075.786,764.307Z" transform="translate(-1013.357 1336.238)" fill="none" stroke="#000" stroke-miterlimit="2.414" stroke-width="0.119"/>
    <path id="Tracé_5068" data-name="Tracé 5068" d="M1101.376,764.224l.028-.4h.177l.028.4Z" transform="translate(-1034.499 1336.52)" fill="#ff0" fill-rule="evenodd"/>
    <path id="Tracé_5069" data-name="Tracé 5069" d="M1101.376,764.224l.028-.4h.177l.028.4Z" transform="translate(-1034.499 1336.52)" fill="none" stroke="#000" stroke-miterlimit="2.414" stroke-width="0.119"/>
    <path id="Tracé_5070" data-name="Tracé 5070" d="M1101.9,764.6h.046v-.086a.023.023,0,1,0-.046,0Z" transform="translate(-1034.93 1335.97)" fill-rule="evenodd"/>
    <path id="Tracé_5071" data-name="Tracé 5071" d="M1099.779,765.054l.014-.218h.2l.018.22Z" transform="translate(-1033.184 1335.687)" fill="#ff0" fill-rule="evenodd"/>
    <path id="Tracé_5072" data-name="Tracé 5072" d="M1099.779,765.054l.014-.218h.2l.018.22Z" transform="translate(-1033.184 1335.687)" fill="none" stroke="#000" stroke-miterlimit="2.414" stroke-width="0.119"/>
    <path id="Tracé_5073" data-name="Tracé 5073" d="M1102.961,765.054l.014-.218h.2l.018.22Z" transform="translate(-1035.804 1335.687)" fill="#ff0" fill-rule="evenodd"/>
    <path id="Tracé_5074" data-name="Tracé 5074" d="M1102.961,765.054l.014-.218h.2l.018.22Z" transform="translate(-1035.804 1335.687)" fill="none" stroke="#000" stroke-miterlimit="2.414" stroke-width="0.119"/>
    <path id="Tracé_5075" data-name="Tracé 5075" d="M1099.561,767.011l.049-.38h.775l.05.392Z" transform="translate(-1033.004 1334.209)" fill="#ff0" fill-rule="evenodd"/>
    <path id="Tracé_5076" data-name="Tracé 5076" d="M1099.561,767.011l.049-.38h.775l.05.392Z" transform="translate(-1033.004 1334.209)" fill="none" stroke="#000" stroke-miterlimit="2.414" stroke-width="0.119"/>
    <path id="Tracé_5077" data-name="Tracé 5077" d="M1100.8,767.143s-.005-.282.214-.347a.338.338,0,0,1,.218.345Z" transform="translate(-1034.028 1334.073)" fill="#ff0" fill-rule="evenodd"/>
    <path id="Tracé_5078" data-name="Tracé 5078" d="M1100.8,767.143s-.005-.282.214-.347a.338.338,0,0,1,.218.345Z" transform="translate(-1034.028 1334.073)" fill="none" stroke="#000" stroke-miterlimit="2.414" stroke-width="0.119"/>
    <path id="Tracé_5079" data-name="Tracé 5079" d="M1101.328,767.623s0-.2.123-.244c0,0,.123.041.126.243Z" transform="translate(-1034.459 1333.592)" fill="#ff0" fill-rule="evenodd"/>
    <path id="Tracé_5080" data-name="Tracé 5080" d="M1101.328,767.623s0-.2.123-.244c0,0,.123.041.126.243Z" transform="translate(-1034.459 1333.592)" fill="none" stroke="#000" stroke-miterlimit="2.414" stroke-width="0.131"/>
    <path id="Tracé_5081" data-name="Tracé 5081" d="M1099.366,768.655h.873a.039.039,0,0,1,0,.078h-.873a.039.039,0,1,1,0-.078" transform="translate(-1032.811 1332.541)" fill="#ff0" fill-rule="evenodd"/>
    <path id="Tracé_5082" data-name="Tracé 5082" d="M1099.551,766.451h.81a.038.038,0,0,0,0-.076h-.81a.038.038,0,1,0,0,.076" transform="translate(-1032.964 1334.418)" fill="#ff0" fill-rule="evenodd"/>
    <path id="Tracé_5083" data-name="Tracé 5083" d="M1099.466,765.949h.84a.038.038,0,1,1,0,.076h-.84a.038.038,0,0,1,0-.076" transform="translate(-1032.894 1334.77)" fill="#ff0" fill-rule="evenodd"/>
    <path id="Tracé_5084" data-name="Tracé 5084" d="M1100.311,765.268h.046V765.2a.023.023,0,1,0-.046,0Z" transform="translate(-1033.622 1335.403)" fill-rule="evenodd"/>
    <path id="Tracé_5085" data-name="Tracé 5085" d="M1103.491,765.268h.046V765.2a.023.023,0,0,0-.046,0Z" transform="translate(-1036.24 1335.403)" fill-rule="evenodd"/>
    <path id="Tracé_5086" data-name="Tracé 5086" d="M1099.688,764.307h.167c.032,0,.045-.016.045-.035v-.092a.012.012,0,0,0-.013-.013h-.041c-.011,0-.012.005-.012.014v.032c0,.006,0,.012-.01.012h-.032c-.006,0-.009-.005-.009-.012v-.035c0-.007,0-.009-.013-.009h-.039c-.011,0-.012.005-.012.012v.038c0,.006,0,.009-.009.009h-.031c-.008,0-.01,0-.01-.011v-.036c0-.007,0-.01-.009-.01h-.037a.014.014,0,0,0-.015.015v.091c0,.022.018.031.08.031" transform="translate(-1033.043 1336.238)" fill="#ff0" fill-rule="evenodd"/>
    <path id="Tracé_5087" data-name="Tracé 5087" d="M1099.688,764.307h.167c.032,0,.045-.016.045-.035v-.092a.012.012,0,0,0-.013-.013h-.041c-.011,0-.012.005-.012.014v.032c0,.006,0,.012-.01.012h-.032c-.006,0-.009-.005-.009-.012v-.035c0-.007,0-.009-.013-.009h-.039c-.011,0-.012.005-.012.012v.038c0,.006,0,.009-.009.009h-.031c-.008,0-.01,0-.01-.011v-.036c0-.007,0-.01-.009-.01h-.037a.014.014,0,0,0-.015.015v.091C1099.608,764.3,1099.626,764.308,1099.688,764.307Z" transform="translate(-1033.043 1336.238)" fill="none" stroke="#000" stroke-miterlimit="2.414" stroke-width="0.119"/>
    <path id="Tracé_5088" data-name="Tracé 5088" d="M1101.285,763.362h.168c.032,0,.045-.016.045-.035v-.092c0-.011-.007-.013-.013-.013h-.041c-.011,0-.013.005-.013.014v.032c0,.006,0,.012-.01.012h-.032c-.006,0-.008-.006-.008-.012v-.035c0-.008,0-.009-.013-.009h-.039c-.011,0-.012.005-.012.012v.038c0,.006,0,.009-.009.009h-.031c-.008,0-.01,0-.01-.011v-.036c0-.007,0-.01-.009-.01h-.037a.014.014,0,0,0-.015.015v.091c0,.022.018.031.08.031" transform="translate(-1034.358 1337.016)" fill="#ff0" fill-rule="evenodd"/>
    <path id="Tracé_5089" data-name="Tracé 5089" d="M1101.285,763.362h.168c.032,0,.045-.016.045-.035v-.092c0-.011-.007-.013-.013-.013h-.041c-.011,0-.013.005-.013.014v.032c0,.006,0,.012-.01.012h-.032c-.006,0-.008-.006-.008-.012v-.035c0-.008,0-.009-.013-.009h-.039c-.011,0-.012.005-.012.012v.038c0,.006,0,.009-.009.009h-.031c-.008,0-.01,0-.01-.011v-.036c0-.007,0-.01-.009-.01h-.037a.014.014,0,0,0-.015.015v.091C1101.2,763.354,1101.223,763.363,1101.285,763.362Z" transform="translate(-1034.358 1337.016)" fill="none" stroke="#000" stroke-miterlimit="2.414" stroke-width="0.119"/>
    <path id="Tracé_5090" data-name="Tracé 5090" d="M1102.869,764.307h.168c.032,0,.045-.016.045-.035v-.092a.012.012,0,0,0-.013-.013h-.041c-.011,0-.013.005-.013.014v.032c0,.006,0,.012-.01.012h-.032c-.006,0-.009-.005-.009-.012v-.035c0-.007,0-.009-.013-.009h-.039c-.011,0-.012.005-.012.012v.038c0,.006,0,.009-.009.009h-.031c-.008,0-.01,0-.01-.011v-.036c0-.007,0-.01-.009-.01h-.037a.014.014,0,0,0-.015.015v.091c0,.022.018.031.08.031" transform="translate(-1035.662 1336.238)" fill="#ff0" fill-rule="evenodd"/>
    <path id="Tracé_5091" data-name="Tracé 5091" d="M1102.869,764.307h.168c.032,0,.045-.016.045-.035v-.092a.012.012,0,0,0-.013-.013h-.041c-.011,0-.013.005-.013.014v.032c0,.006,0,.012-.01.012h-.032c-.006,0-.009-.005-.009-.012v-.035c0-.007,0-.009-.013-.009h-.039c-.011,0-.012.005-.012.012v.038c0,.006,0,.009-.009.009h-.031c-.008,0-.01,0-.01-.011v-.036c0-.007,0-.01-.009-.01h-.037a.014.014,0,0,0-.015.015v.091C1102.789,764.3,1102.807,764.308,1102.869,764.307Z" transform="translate(-1035.662 1336.238)" fill="none" stroke="#000" stroke-miterlimit="2.414" stroke-width="0.119"/>
    <path id="Tracé_5092" data-name="Tracé 5092" d="M1074.293,778l.028-.4h.177l.028.4Z" transform="translate(-1012.193 1325.171)" fill="#ff0" fill-rule="evenodd"/>
    <path id="Tracé_5093" data-name="Tracé 5093" d="M1074.293,778l.028-.4h.177l.028.4Z" transform="translate(-1012.193 1325.171)" fill="none" stroke="#000" stroke-miterlimit="2.414" stroke-width="0.119"/>
    <path id="Tracé_5094" data-name="Tracé 5094" d="M1074.818,778.38h.046v-.086a.023.023,0,1,0-.046,0Z" transform="translate(-1012.625 1324.622)" fill-rule="evenodd"/>
    <path id="Tracé_5095" data-name="Tracé 5095" d="M1072.7,778.833l.014-.218h.2l.018.22Z" transform="translate(-1010.878 1324.338)" fill="#ff0" fill-rule="evenodd"/>
    <path id="Tracé_5096" data-name="Tracé 5096" d="M1072.7,778.833l.014-.218h.2l.018.22Z" transform="translate(-1010.878 1324.338)" fill="none" stroke="#000" stroke-miterlimit="2.414" stroke-width="0.119"/>
    <path id="Tracé_5097" data-name="Tracé 5097" d="M1075.878,778.833l.014-.218h.2l.018.22Z" transform="translate(-1013.498 1324.338)" fill="#ff0" fill-rule="evenodd"/>
    <path id="Tracé_5098" data-name="Tracé 5098" d="M1075.878,778.833l.014-.218h.2l.018.22Z" transform="translate(-1013.498 1324.338)" fill="none" stroke="#000" stroke-miterlimit="2.414" stroke-width="0.119"/>
    <path id="Tracé_5099" data-name="Tracé 5099" d="M1072.478,780.79l.048-.38h.775l.05.392Z" transform="translate(-1010.698 1322.86)" fill="#ff0" fill-rule="evenodd"/>
    <path id="Tracé_5100" data-name="Tracé 5100" d="M1072.478,780.79l.048-.38h.775l.05.392Z" transform="translate(-1010.698 1322.86)" fill="none" stroke="#000" stroke-miterlimit="2.414" stroke-width="0.119"/>
    <path id="Tracé_5101" data-name="Tracé 5101" d="M1073.721,780.923s-.005-.282.214-.347a.338.338,0,0,1,.219.345Z" transform="translate(-1011.722 1322.723)" fill="#ff0" fill-rule="evenodd"/>
    <path id="Tracé_5102" data-name="Tracé 5102" d="M1073.721,780.923s-.005-.282.214-.347a.338.338,0,0,1,.219.345Z" transform="translate(-1011.722 1322.723)" fill="none" stroke="#000" stroke-miterlimit="2.414" stroke-width="0.119"/>
    <path id="Tracé_5103" data-name="Tracé 5103" d="M1074.244,781.4s0-.2.123-.244c0,0,.123.041.126.243Z" transform="translate(-1012.152 1322.243)" fill="#ff0" fill-rule="evenodd"/>
    <path id="Tracé_5104" data-name="Tracé 5104" d="M1074.244,781.4s0-.2.123-.244c0,0,.123.041.126.243Z" transform="translate(-1012.152 1322.243)" fill="none" stroke="#000" stroke-miterlimit="2.414" stroke-width="0.131"/>
    <path id="Tracé_5105" data-name="Tracé 5105" d="M1072.283,782.434h.872a.039.039,0,1,1,0,.078h-.872a.039.039,0,1,1,0-.078" transform="translate(-1010.505 1321.193)" fill="#ff0" fill-rule="evenodd"/>
    <path id="Tracé_5106" data-name="Tracé 5106" d="M1072.469,780.231h.81a.038.038,0,0,0,0-.076h-.81a.038.038,0,0,0,0,.076" transform="translate(-1010.66 1323.07)" fill="#ff0" fill-rule="evenodd"/>
    <path id="Tracé_5107" data-name="Tracé 5107" d="M1072.383,779.728h.84a.038.038,0,0,1,0,.076h-.84a.038.038,0,0,1,0-.076" transform="translate(-1010.589 1323.422)" fill="#ff0" fill-rule="evenodd"/>
    <path id="Tracé_5108" data-name="Tracé 5108" d="M1073.227,779.048h.046v-.064a.023.023,0,1,0-.046,0Z" transform="translate(-1011.315 1324.053)" fill-rule="evenodd"/>
    <path id="Tracé_5109" data-name="Tracé 5109" d="M1076.408,779.048h.046v-.064a.023.023,0,0,0-.046,0Z" transform="translate(-1013.935 1324.053)" fill-rule="evenodd"/>
    <path id="Tracé_5110" data-name="Tracé 5110" d="M1072.606,778.086h.168c.032,0,.045-.016.045-.035v-.092c0-.011-.007-.013-.014-.013h-.04c-.011,0-.013.005-.013.014v.032c0,.006,0,.012-.01.012h-.032c-.006,0-.009-.005-.009-.012v-.035c0-.007,0-.009-.012-.009h-.039c-.012,0-.012.005-.012.012V778c0,.006,0,.009-.009.009h-.031c-.008,0-.01,0-.01-.011v-.036c0-.007,0-.01-.009-.01h-.037a.014.014,0,0,0-.015.015v.091c0,.022.018.031.08.031" transform="translate(-1010.738 1324.889)" fill="#ff0" fill-rule="evenodd"/>
    <path id="Tracé_5111" data-name="Tracé 5111" d="M1072.606,778.086h.168c.032,0,.045-.016.045-.035v-.092c0-.011-.007-.013-.014-.013h-.04c-.011,0-.013.005-.013.014v.032c0,.006,0,.012-.01.012h-.032c-.006,0-.009-.005-.009-.012v-.035c0-.007,0-.009-.012-.009h-.039c-.012,0-.012.005-.012.012V778c0,.006,0,.009-.009.009h-.031c-.008,0-.01,0-.01-.011v-.036c0-.007,0-.01-.009-.01h-.037a.014.014,0,0,0-.015.015v.091C1072.526,778.078,1072.544,778.087,1072.606,778.086Z" transform="translate(-1010.738 1324.889)" fill="none" stroke="#000" stroke-miterlimit="2.414" stroke-width="0.119"/>
    <path id="Tracé_5112" data-name="Tracé 5112" d="M1074.2,777.141h.168c.032,0,.045-.016.045-.035v-.092a.012.012,0,0,0-.013-.013h-.04c-.011,0-.013.005-.013.014v.032c0,.006,0,.012-.011.012h-.032c-.006,0-.009-.006-.009-.012v-.035c0-.008,0-.009-.013-.009h-.039c-.011,0-.012.005-.012.012v.038c0,.006,0,.009-.009.009h-.031c-.008,0-.01,0-.01-.011v-.036c0-.007,0-.01-.009-.01h-.037a.014.014,0,0,0-.015.015v.091c0,.022.018.031.08.03" transform="translate(-1012.053 1325.668)" fill="#ff0" fill-rule="evenodd"/>
    <path id="Tracé_5113" data-name="Tracé 5113" d="M1074.2,777.141h.168c.032,0,.045-.016.045-.035v-.092a.012.012,0,0,0-.013-.013h-.04c-.011,0-.013.005-.013.014v.032c0,.006,0,.012-.011.012h-.032c-.006,0-.009-.006-.009-.012v-.035c0-.008,0-.009-.013-.009h-.039c-.011,0-.012.005-.012.012v.038c0,.006,0,.009-.009.009h-.031c-.008,0-.01,0-.01-.011v-.036c0-.007,0-.01-.009-.01h-.037a.014.014,0,0,0-.015.015v.091C1074.123,777.133,1074.141,777.142,1074.2,777.141Z" transform="translate(-1012.053 1325.668)" fill="none" stroke="#000" stroke-miterlimit="2.414" stroke-width="0.119"/>
    <path id="Tracé_5114" data-name="Tracé 5114" d="M1075.786,778.086h.168c.032,0,.045-.016.045-.035v-.092a.012.012,0,0,0-.013-.013h-.041c-.011,0-.013.005-.013.014v.032c0,.006,0,.012-.01.012h-.032c-.006,0-.008-.005-.008-.012v-.035c0-.007,0-.009-.013-.009h-.04c-.011,0-.012.005-.012.012V778c0,.006,0,.009-.009.009h-.031c-.008,0-.01,0-.01-.011v-.036c0-.007,0-.01-.009-.01h-.037a.014.014,0,0,0-.015.015v.091c0,.022.018.031.08.031" transform="translate(-1013.357 1324.889)" fill="#ff0" fill-rule="evenodd"/>
    <path id="Tracé_5115" data-name="Tracé 5115" d="M1075.786,778.086h.168c.032,0,.045-.016.045-.035v-.092a.012.012,0,0,0-.013-.013h-.041c-.011,0-.013.005-.013.014v.032c0,.006,0,.012-.01.012h-.032c-.006,0-.008-.005-.008-.012v-.035c0-.007,0-.009-.013-.009h-.04c-.011,0-.012.005-.012.012V778c0,.006,0,.009-.009.009h-.031c-.008,0-.01,0-.01-.011v-.036c0-.007,0-.01-.009-.01h-.037a.014.014,0,0,0-.015.015v.091C1075.706,778.078,1075.724,778.087,1075.786,778.086Z" transform="translate(-1013.357 1324.889)" fill="none" stroke="#000" stroke-miterlimit="2.414" stroke-width="0.119"/>
    <path id="Tracé_5116" data-name="Tracé 5116" d="M1101.376,778l.028-.4h.177l.028.4Z" transform="translate(-1034.499 1325.171)" fill="#ff0" fill-rule="evenodd"/>
    <path id="Tracé_5117" data-name="Tracé 5117" d="M1101.376,778l.028-.4h.177l.028.4Z" transform="translate(-1034.499 1325.171)" fill="none" stroke="#000" stroke-miterlimit="2.414" stroke-width="0.119"/>
    <path id="Tracé_5118" data-name="Tracé 5118" d="M1101.9,778.38h.046v-.086a.023.023,0,1,0-.046,0Z" transform="translate(-1034.93 1324.622)" fill-rule="evenodd"/>
    <path id="Tracé_5119" data-name="Tracé 5119" d="M1099.779,778.833l.014-.218h.2l.018.22Z" transform="translate(-1033.184 1324.338)" fill="#ff0" fill-rule="evenodd"/>
    <path id="Tracé_5120" data-name="Tracé 5120" d="M1099.779,778.833l.014-.218h.2l.018.22Z" transform="translate(-1033.184 1324.338)" fill="none" stroke="#000" stroke-miterlimit="2.414" stroke-width="0.119"/>
    <path id="Tracé_5121" data-name="Tracé 5121" d="M1102.961,778.833l.014-.218h.2l.018.22Z" transform="translate(-1035.804 1324.338)" fill="#ff0" fill-rule="evenodd"/>
    <path id="Tracé_5122" data-name="Tracé 5122" d="M1102.961,778.833l.014-.218h.2l.018.22Z" transform="translate(-1035.804 1324.338)" fill="none" stroke="#000" stroke-miterlimit="2.414" stroke-width="0.119"/>
    <path id="Tracé_5123" data-name="Tracé 5123" d="M1099.561,780.79l.049-.38h.775l.05.392Z" transform="translate(-1033.004 1322.86)" fill="#ff0" fill-rule="evenodd"/>
    <path id="Tracé_5124" data-name="Tracé 5124" d="M1099.561,780.79l.049-.38h.775l.05.392Z" transform="translate(-1033.004 1322.86)" fill="none" stroke="#000" stroke-miterlimit="2.414" stroke-width="0.119"/>
    <path id="Tracé_5125" data-name="Tracé 5125" d="M1100.8,780.923s-.005-.282.214-.347a.338.338,0,0,1,.218.345Z" transform="translate(-1034.028 1322.723)" fill="#ff0" fill-rule="evenodd"/>
    <path id="Tracé_5126" data-name="Tracé 5126" d="M1100.8,780.923s-.005-.282.214-.347a.338.338,0,0,1,.218.345Z" transform="translate(-1034.028 1322.723)" fill="none" stroke="#000" stroke-miterlimit="2.414" stroke-width="0.119"/>
    <path id="Tracé_5127" data-name="Tracé 5127" d="M1101.328,781.4s0-.2.123-.244c0,0,.123.041.126.243Z" transform="translate(-1034.459 1322.243)" fill="#ff0" fill-rule="evenodd"/>
    <path id="Tracé_5128" data-name="Tracé 5128" d="M1101.328,781.4s0-.2.123-.244c0,0,.123.041.126.243Z" transform="translate(-1034.459 1322.243)" fill="none" stroke="#000" stroke-miterlimit="2.414" stroke-width="0.131"/>
    <path id="Tracé_5129" data-name="Tracé 5129" d="M1099.366,782.434h.873a.039.039,0,0,1,0,.078h-.873a.039.039,0,1,1,0-.078" transform="translate(-1032.811 1321.193)" fill="#ff0" fill-rule="evenodd"/>
    <path id="Tracé_5130" data-name="Tracé 5130" d="M1099.551,780.231h.81a.038.038,0,0,0,0-.076h-.81a.038.038,0,1,0,0,.076" transform="translate(-1032.964 1323.07)" fill="#ff0" fill-rule="evenodd"/>
    <path id="Tracé_5131" data-name="Tracé 5131" d="M1099.466,779.728h.84a.038.038,0,1,1,0,.076h-.84a.038.038,0,0,1,0-.076" transform="translate(-1032.894 1323.422)" fill="#ff0" fill-rule="evenodd"/>
    <path id="Tracé_5132" data-name="Tracé 5132" d="M1100.311,779.048h.046v-.064a.023.023,0,1,0-.046,0Z" transform="translate(-1033.622 1324.053)" fill-rule="evenodd"/>
    <path id="Tracé_5133" data-name="Tracé 5133" d="M1103.491,779.048h.046v-.064a.023.023,0,0,0-.046,0Z" transform="translate(-1036.24 1324.053)" fill-rule="evenodd"/>
    <path id="Tracé_5134" data-name="Tracé 5134" d="M1099.688,778.086h.167c.032,0,.045-.016.045-.035v-.092a.012.012,0,0,0-.013-.013h-.041c-.011,0-.012.005-.012.014v.032c0,.006,0,.012-.01.012h-.032c-.006,0-.009-.005-.009-.012v-.035c0-.007,0-.009-.013-.009h-.039c-.011,0-.012.005-.012.012V778c0,.006,0,.009-.009.009h-.031c-.008,0-.01,0-.01-.011v-.036c0-.007,0-.01-.009-.01h-.037a.014.014,0,0,0-.015.015v.091c0,.022.018.031.08.031" transform="translate(-1033.043 1324.889)" fill="#ff0" fill-rule="evenodd"/>
    <path id="Tracé_5135" data-name="Tracé 5135" d="M1099.688,778.086h.167c.032,0,.045-.016.045-.035v-.092a.012.012,0,0,0-.013-.013h-.041c-.011,0-.012.005-.012.014v.032c0,.006,0,.012-.01.012h-.032c-.006,0-.009-.005-.009-.012v-.035c0-.007,0-.009-.013-.009h-.039c-.011,0-.012.005-.012.012V778c0,.006,0,.009-.009.009h-.031c-.008,0-.01,0-.01-.011v-.036c0-.007,0-.01-.009-.01h-.037a.014.014,0,0,0-.015.015v.091C1099.608,778.078,1099.626,778.087,1099.688,778.086Z" transform="translate(-1033.043 1324.889)" fill="none" stroke="#000" stroke-miterlimit="2.414" stroke-width="0.119"/>
    <path id="Tracé_5136" data-name="Tracé 5136" d="M1101.285,777.141h.168c.032,0,.045-.016.045-.035v-.092c0-.011-.007-.013-.013-.013h-.041c-.011,0-.013.005-.013.014v.032c0,.006,0,.012-.01.012h-.032c-.006,0-.008-.006-.008-.012v-.035c0-.008,0-.009-.013-.009h-.039c-.011,0-.012.005-.012.012v.038c0,.006,0,.009-.009.009h-.031c-.008,0-.01,0-.01-.011v-.036c0-.007,0-.01-.009-.01h-.037a.014.014,0,0,0-.015.015v.091c0,.022.018.031.08.03" transform="translate(-1034.358 1325.668)" fill="#ff0" fill-rule="evenodd"/>
    <path id="Tracé_5137" data-name="Tracé 5137" d="M1101.285,777.141h.168c.032,0,.045-.016.045-.035v-.092c0-.011-.007-.013-.013-.013h-.041c-.011,0-.013.005-.013.014v.032c0,.006,0,.012-.01.012h-.032c-.006,0-.008-.006-.008-.012v-.035c0-.008,0-.009-.013-.009h-.039c-.011,0-.012.005-.012.012v.038c0,.006,0,.009-.009.009h-.031c-.008,0-.01,0-.01-.011v-.036c0-.007,0-.01-.009-.01h-.037a.014.014,0,0,0-.015.015v.091C1101.2,777.133,1101.223,777.142,1101.285,777.141Z" transform="translate(-1034.358 1325.668)" fill="none" stroke="#000" stroke-miterlimit="2.414" stroke-width="0.119"/>
    <path id="Tracé_5138" data-name="Tracé 5138" d="M1102.869,778.086h.168c.032,0,.045-.016.045-.035v-.092a.012.012,0,0,0-.013-.013h-.041c-.011,0-.013.005-.013.014v.032c0,.006,0,.012-.01.012h-.032c-.006,0-.009-.005-.009-.012v-.035c0-.007,0-.009-.013-.009h-.039c-.011,0-.012.005-.012.012V778c0,.006,0,.009-.009.009h-.031c-.008,0-.01,0-.01-.011v-.036c0-.007,0-.01-.009-.01h-.037a.014.014,0,0,0-.015.015v.091c0,.022.018.031.08.031" transform="translate(-1035.662 1324.889)" fill="#ff0" fill-rule="evenodd"/>
    <path id="Tracé_5139" data-name="Tracé 5139" d="M1102.869,778.086h.168c.032,0,.045-.016.045-.035v-.092a.012.012,0,0,0-.013-.013h-.041c-.011,0-.013.005-.013.014v.032c0,.006,0,.012-.01.012h-.032c-.006,0-.009-.005-.009-.012v-.035c0-.007,0-.009-.013-.009h-.039c-.011,0-.012.005-.012.012V778c0,.006,0,.009-.009.009h-.031c-.008,0-.01,0-.01-.011v-.036c0-.007,0-.01-.009-.01h-.037a.014.014,0,0,0-.015.015v.091C1102.789,778.078,1102.807,778.087,1102.869,778.086Z" transform="translate(-1035.662 1324.889)" fill="none" stroke="#000" stroke-miterlimit="2.414" stroke-width="0.119"/>
    <path id="Tracé_5140" data-name="Tracé 5140" d="M1076.4,792.563l-.262-.3.124-.125.3.26Z" transform="translate(-1013.715 1313.202)" fill="#ff0" fill-rule="evenodd"/>
    <path id="Tracé_5141" data-name="Tracé 5141" d="M1076.4,792.563l-.262-.3.124-.125.3.26Z" transform="translate(-1013.715 1313.202)" fill="none" stroke="#000" stroke-miterlimit="2.414" stroke-width="0.119"/>
    <path id="Tracé_5142" data-name="Tracé 5142" d="M1076.991,793.026l.032-.033-.061-.061a.023.023,0,0,0-.033,0,.023.023,0,0,0,0,.033Z" transform="translate(-1014.359 1312.552)" fill-rule="evenodd"/>
    <path id="Tracé_5143" data-name="Tracé 5143" d="M1075.813,794.264l-.145-.164.138-.138.168.142Z" transform="translate(-1013.325 1311.699)" fill="#ff0" fill-rule="evenodd"/>
    <path id="Tracé_5144" data-name="Tracé 5144" d="M1075.813,794.264l-.145-.164.138-.138.168.142Z" transform="translate(-1013.325 1311.699)" fill="none" stroke="#000" stroke-miterlimit="2.414" stroke-width="0.119"/>
    <path id="Tracé_5145" data-name="Tracé 5145" d="M1078.062,792.014l-.144-.164.138-.138.168.142Z" transform="translate(-1015.178 1313.552)" fill="#ff0" fill-rule="evenodd"/>
    <path id="Tracé_5146" data-name="Tracé 5146" d="M1078.062,792.014l-.144-.164.138-.138.168.142Z" transform="translate(-1015.178 1313.552)" fill="none" stroke="#000" stroke-miterlimit="2.414" stroke-width="0.119"/>
    <path id="Tracé_5147" data-name="Tracé 5147" d="M1077.156,793.775l-.235-.3.548-.548.313.242Z" transform="translate(-1014.358 1312.553)" fill="#ff0" fill-rule="evenodd"/>
    <path id="Tracé_5148" data-name="Tracé 5148" d="M1077.156,793.775l-.235-.3.548-.548.313.242Z" transform="translate(-1014.358 1312.553)" fill="none" stroke="#000" stroke-miterlimit="2.414" stroke-width="0.119"/>
    <path id="Tracé_5149" data-name="Tracé 5149" d="M1078.524,794.861s-.2-.2-.094-.4a.338.338,0,0,1,.4.089Z" transform="translate(-1015.573 1311.309)" fill="#ff0" fill-rule="evenodd"/>
    <path id="Tracé_5150" data-name="Tracé 5150" d="M1078.524,794.861s-.2-.2-.094-.4a.338.338,0,0,1,.4.089Z" transform="translate(-1015.573 1311.309)" fill="none" stroke="#000" stroke-miterlimit="2.414" stroke-width="0.119"/>
    <path id="Tracé_5151" data-name="Tracé 5151" d="M1079.022,795.214s-.142-.138-.085-.26c0,0,.115-.058.26.083Z" transform="translate(-1016.006 1310.891)" fill="#ff0" fill-rule="evenodd"/>
    <path id="Tracé_5152" data-name="Tracé 5152" d="M1079.022,795.214s-.142-.138-.085-.26c0,0,.115-.058.26.083Z" transform="translate(-1016.006 1310.891)" fill="none" stroke="#000" stroke-miterlimit="2.414" stroke-width="0.131"/>
    <path id="Tracé_5153" data-name="Tracé 5153" d="M1078.1,794.73l.617-.617a.039.039,0,0,1,.055.055l-.617.617a.039.039,0,1,1-.056-.055" transform="translate(-1015.316 1311.583)" fill="#ff0" fill-rule="evenodd"/>
    <path id="Tracé_5154" data-name="Tracé 5154" d="M1076.667,793.255l.573-.573a.038.038,0,0,0,0-.053h0a.038.038,0,0,0-.053,0l-.572.572a.037.037,0,0,0,0,.053h0a.038.038,0,0,0,.053,0" transform="translate(-1014.095 1312.805)" fill="#ff0" fill-rule="evenodd"/>
    <path id="Tracé_5155" data-name="Tracé 5155" d="M1076.251,792.86l.594-.594a.038.038,0,0,1,.053.053l-.594.594a.038.038,0,0,1-.053-.053" transform="translate(-1013.796 1313.104)" fill="#ff0" fill-rule="evenodd"/>
    <path id="Tracé_5156" data-name="Tracé 5156" d="M1076.338,794.623l.033-.033-.045-.045a.023.023,0,0,0-.033.032Z" transform="translate(-1013.834 1311.224)" fill-rule="evenodd"/>
    <path id="Tracé_5157" data-name="Tracé 5157" d="M1078.588,792.374l.033-.033-.046-.045a.023.023,0,0,0-.032,0,.023.023,0,0,0,0,.032Z" transform="translate(-1015.687 1313.076)" fill-rule="evenodd"/>
    <path id="Tracé_5158" data-name="Tracé 5158" d="M1075.211,793.545l.119-.119c.022-.023.021-.043.007-.057l-.065-.065a.011.011,0,0,0-.019,0l-.029.029c-.008.008-.005.013,0,.019l.023.023s.008.009,0,.016l-.022.023s-.01,0-.015,0l-.025-.025c-.005-.005-.009,0-.015,0l-.028.028c-.008.008,0,.012,0,.017l.027.027s.006.007,0,.013l-.021.022c-.006.006-.01,0-.015,0l-.026-.025c-.005-.005-.009-.005-.013,0l-.026.026a.014.014,0,0,0,0,.021l.065.065c.016.016.034.009.078-.035" transform="translate(-1012.827 1312.244)" fill="#ff0" fill-rule="evenodd"/>
    <path id="Tracé_5159" data-name="Tracé 5159" d="M1075.211,793.545l.119-.119c.022-.023.021-.043.007-.057l-.065-.065a.011.011,0,0,0-.019,0l-.029.029c-.008.008-.005.013,0,.019l.023.023s.008.009,0,.016l-.022.023s-.01,0-.015,0l-.025-.025c-.005-.005-.009,0-.015,0l-.028.028c-.008.008,0,.012,0,.017l.027.027s.006.007,0,.013l-.021.022c-.006.006-.01,0-.015,0l-.026-.025c-.005-.005-.009-.005-.013,0l-.026.026a.014.014,0,0,0,0,.021l.065.065C1075.148,793.6,1075.167,793.589,1075.211,793.545Z" transform="translate(-1012.827 1312.244)" fill="none" stroke="#000" stroke-miterlimit="2.414" stroke-width="0.119"/>
    <path id="Tracé_5160" data-name="Tracé 5160" d="M1075.673,791.748l.119-.119c.023-.023.021-.043.007-.057l-.065-.065a.012.012,0,0,0-.019,0l-.029.029c-.008.008-.005.013,0,.019l.023.023s.008.009,0,.016l-.023.023s-.01,0-.015,0l-.025-.025c-.005-.005-.009,0-.015,0l-.028.028c-.008.008,0,.012,0,.017l.027.027s.006.007,0,.013l-.022.022c-.006.006-.01,0-.015,0l-.026-.025c-.005-.005-.009-.005-.013,0l-.026.026a.014.014,0,0,0,0,.022l.065.064c.015.016.034.009.078-.035" transform="translate(-1013.208 1313.724)" fill="#ff0" fill-rule="evenodd"/>
    <path id="Tracé_5161" data-name="Tracé 5161" d="M1075.673,791.748l.119-.119c.023-.023.021-.043.007-.057l-.065-.065a.012.012,0,0,0-.019,0l-.029.029c-.008.008-.005.013,0,.019l.023.023s.008.009,0,.016l-.023.023s-.01,0-.015,0l-.025-.025c-.005-.005-.009,0-.015,0l-.028.028c-.008.008,0,.012,0,.017l.027.027s.006.007,0,.013l-.022.022c-.006.006-.01,0-.015,0l-.026-.025c-.005-.005-.009-.005-.013,0l-.026.026a.014.014,0,0,0,0,.022l.065.064C1075.611,791.8,1075.63,791.792,1075.673,791.748Z" transform="translate(-1013.208 1313.724)" fill="none" stroke="#000" stroke-miterlimit="2.414" stroke-width="0.119"/>
    <path id="Tracé_5162" data-name="Tracé 5162" d="M1077.46,791.3l.119-.119c.023-.023.021-.043.007-.057l-.065-.065a.012.012,0,0,0-.019,0l-.029.029c-.008.008-.005.013,0,.019l.023.023s.008.009,0,.016l-.023.023s-.01,0-.014,0l-.025-.025c-.005-.005-.009,0-.016,0l-.028.028c-.008.008,0,.012,0,.017l.027.027s.006.007,0,.013l-.021.022c-.006.006-.01,0-.015,0l-.026-.025c-.005-.005-.009-.005-.013,0l-.026.026a.014.014,0,0,0,0,.022l.064.065c.016.016.034.009.078-.035" transform="translate(-1014.68 1314.096)" fill="#ff0" fill-rule="evenodd"/>
    <path id="Tracé_5163" data-name="Tracé 5163" d="M1077.46,791.3l.119-.119c.023-.023.021-.043.007-.057l-.065-.065a.012.012,0,0,0-.019,0l-.029.029c-.008.008-.005.013,0,.019l.023.023s.008.009,0,.016l-.023.023s-.01,0-.014,0l-.025-.025c-.005-.005-.009,0-.016,0l-.028.028c-.008.008,0,.012,0,.017l.027.027s.006.007,0,.013l-.021.022c-.006.006-.01,0-.015,0l-.026-.025c-.005-.005-.009-.005-.013,0l-.026.026a.014.014,0,0,0,0,.022l.064.065C1077.4,791.346,1077.417,791.34,1077.46,791.3Z" transform="translate(-1014.68 1314.096)" fill="none" stroke="#000" stroke-miterlimit="2.414" stroke-width="0.119"/>
    <path id="Tracé_5164" data-name="Tracé 5164" d="M1098.608,792.563l.262-.3-.124-.125-.3.26Z" transform="translate(-1032.085 1313.202)" fill="#ff0" fill-rule="evenodd"/>
    <path id="Tracé_5165" data-name="Tracé 5165" d="M1098.608,792.563l.262-.3-.124-.125-.3.26Z" transform="translate(-1032.085 1313.202)" fill="none" stroke="#000" stroke-miterlimit="2.414" stroke-width="0.119"/>
    <path id="Tracé_5166" data-name="Tracé 5166" d="M1099.533,793.026l-.033-.033.061-.061a.023.023,0,1,1,.033.033Z" transform="translate(-1032.954 1312.552)" fill-rule="evenodd"/>
    <path id="Tracé_5167" data-name="Tracé 5167" d="M1099.75,794.264l.144-.164-.138-.138-.168.142Z" transform="translate(-1033.026 1311.699)" fill="#ff0" fill-rule="evenodd"/>
    <path id="Tracé_5168" data-name="Tracé 5168" d="M1099.75,794.264l.144-.164-.138-.138-.168.142Z" transform="translate(-1033.026 1311.699)" fill="none" stroke="#000" stroke-miterlimit="2.414" stroke-width="0.119"/>
    <path id="Tracé_5169" data-name="Tracé 5169" d="M1097.5,792.014l.145-.164-.138-.138-.168.142Z" transform="translate(-1031.173 1313.552)" fill="#ff0" fill-rule="evenodd"/>
    <path id="Tracé_5170" data-name="Tracé 5170" d="M1097.5,792.014l.145-.164-.138-.138-.168.142Z" transform="translate(-1031.173 1313.552)" fill="none" stroke="#000" stroke-miterlimit="2.414" stroke-width="0.119"/>
    <path id="Tracé_5171" data-name="Tracé 5171" d="M1095.82,793.775l.234-.3-.548-.548-.312.242Z" transform="translate(-1029.407 1312.553)" fill="#ff0" fill-rule="evenodd"/>
    <path id="Tracé_5172" data-name="Tracé 5172" d="M1095.82,793.775l.234-.3-.548-.548-.312.242Z" transform="translate(-1029.407 1312.553)" fill="none" stroke="#000" stroke-miterlimit="2.414" stroke-width="0.119"/>
    <path id="Tracé_5173" data-name="Tracé 5173" d="M1096.46,794.861s.2-.2.094-.4a.338.338,0,0,0-.4.089Z" transform="translate(-1030.199 1311.309)" fill="#ff0" fill-rule="evenodd"/>
    <path id="Tracé_5174" data-name="Tracé 5174" d="M1096.46,794.861s.2-.2.094-.4a.338.338,0,0,0-.4.089Z" transform="translate(-1030.199 1311.309)" fill="none" stroke="#000" stroke-miterlimit="2.414" stroke-width="0.119"/>
    <path id="Tracé_5175" data-name="Tracé 5175" d="M1096.692,795.214s.142-.138.085-.26c0,0-.115-.058-.261.083Z" transform="translate(-1030.497 1310.891)" fill="#ff0" fill-rule="evenodd"/>
    <path id="Tracé_5176" data-name="Tracé 5176" d="M1096.692,795.214s.142-.138.085-.26c0,0-.115-.058-.261.083Z" transform="translate(-1030.497 1310.891)" fill="none" stroke="#000" stroke-miterlimit="2.414" stroke-width="0.131"/>
    <path id="Tracé_5177" data-name="Tracé 5177" d="M1095.65,794.73l-.617-.617a.039.039,0,1,0-.055.055l.617.617a.039.039,0,0,0,.055,0,.039.039,0,0,0,0-.055" transform="translate(-1029.22 1311.583)" fill="#ff0" fill-rule="evenodd"/>
    <path id="Tracé_5178" data-name="Tracé 5178" d="M1097.3,793.255l-.572-.573a.038.038,0,0,1,.053-.053l.573.572a.038.038,0,0,1,0,.053h0a.038.038,0,0,1-.053,0" transform="translate(-1030.662 1312.805)" fill="#ff0" fill-rule="evenodd"/>
    <path id="Tracé_5179" data-name="Tracé 5179" d="M1097.617,792.86l-.594-.594a.038.038,0,0,0-.053.053l.594.594a.038.038,0,0,0,.053,0h0a.038.038,0,0,0,0-.053" transform="translate(-1030.861 1313.104)" fill="#ff0" fill-rule="evenodd"/>
    <path id="Tracé_5180" data-name="Tracé 5180" d="M1100.258,794.623l-.033-.033.045-.045a.023.023,0,0,1,.033.032Z" transform="translate(-1033.551 1311.224)" fill-rule="evenodd"/>
    <path id="Tracé_5181" data-name="Tracé 5181" d="M1098.009,792.374l-.033-.033.045-.045a.023.023,0,1,1,.033.032Z" transform="translate(-1031.698 1313.076)" fill-rule="evenodd"/>
    <path id="Tracé_5182" data-name="Tracé 5182" d="M1100.457,793.545l-.118-.119c-.023-.023-.021-.043-.007-.057l.065-.065a.012.012,0,0,1,.019,0l.029.029c.008.008.005.013,0,.019l-.023.023s-.008.009,0,.016l.023.023s.01,0,.015,0l.025-.025c.005-.005.009,0,.015,0l.028.028c.008.008,0,.012,0,.017l-.026.027s-.006.007,0,.013l.021.022c.006.006.01,0,.015,0l.026-.025c.005-.005.009-.005.013,0l.026.026a.014.014,0,0,1,0,.021l-.065.065c-.016.016-.034.009-.078-.035" transform="translate(-1033.63 1312.244)" fill="#ff0" fill-rule="evenodd"/>
    <path id="Tracé_5183" data-name="Tracé 5183" d="M1100.457,793.545l-.118-.119c-.023-.023-.021-.043-.007-.057l.065-.065a.012.012,0,0,1,.019,0l.029.029c.008.008.005.013,0,.019l-.023.023s-.008.009,0,.016l.023.023s.01,0,.015,0l.025-.025c.005-.005.009,0,.015,0l.028.028c.008.008,0,.012,0,.017l-.026.027s-.006.007,0,.013l.021.022c.006.006.01,0,.015,0l.026-.025c.005-.005.009-.005.013,0l.026.026a.014.014,0,0,1,0,.021l-.065.065C1100.52,793.6,1100.5,793.589,1100.457,793.545Z" transform="translate(-1033.63 1312.244)" fill="none" stroke="#000" stroke-miterlimit="2.414" stroke-width="0.119"/>
    <path id="Tracé_5184" data-name="Tracé 5184" d="M1099.995,791.748l-.119-.119c-.023-.023-.021-.043-.007-.057l.065-.065a.012.012,0,0,1,.019,0l.029.029c.008.008.005.013,0,.019l-.023.023s-.008.009,0,.016l.023.023s.01,0,.015,0l.025-.025c.005-.005.009,0,.015,0l.028.028c.008.008,0,.012,0,.017l-.027.027s-.006.007,0,.013l.022.022c.006.006.009,0,.015,0l.025-.025c.005-.005.009-.005.014,0l.026.026a.014.014,0,0,1,0,.022l-.064.064c-.016.016-.034.009-.078-.035" transform="translate(-1033.249 1313.724)" fill="#ff0" fill-rule="evenodd"/>
    <path id="Tracé_5185" data-name="Tracé 5185" d="M1099.995,791.748l-.119-.119c-.023-.023-.021-.043-.007-.057l.065-.065a.012.012,0,0,1,.019,0l.029.029c.008.008.005.013,0,.019l-.023.023s-.008.009,0,.016l.023.023s.01,0,.015,0l.025-.025c.005-.005.009,0,.015,0l.028.028c.008.008,0,.012,0,.017l-.027.027s-.006.007,0,.013l.022.022c.006.006.009,0,.015,0l.025-.025c.005-.005.009-.005.014,0l.026.026a.014.014,0,0,1,0,.022l-.064.064C1100.057,791.8,1100.039,791.792,1099.995,791.748Z" transform="translate(-1033.249 1313.724)" fill="none" stroke="#000" stroke-miterlimit="2.414" stroke-width="0.119"/>
    <path id="Tracé_5186" data-name="Tracé 5186" d="M1098.208,791.3l-.119-.119c-.023-.023-.021-.043-.007-.057l.065-.065a.012.012,0,0,1,.019,0l.029.029c.008.008.005.013,0,.019l-.023.023s-.008.009,0,.016l.023.023s.01,0,.015,0l.025-.025c.005-.005.009,0,.015,0l.028.028c.008.008,0,.012,0,.017l-.027.027s-.006.007,0,.013l.022.022c.006.006.009,0,.014,0l.025-.025c.005-.005.009-.005.013,0l.026.026a.014.014,0,0,1,0,.022l-.064.065c-.016.016-.035.009-.078-.035" transform="translate(-1031.777 1314.096)" fill="#ff0" fill-rule="evenodd"/>
    <path id="Tracé_5187" data-name="Tracé 5187" d="M1098.208,791.3l-.119-.119c-.023-.023-.021-.043-.007-.057l.065-.065a.012.012,0,0,1,.019,0l.029.029c.008.008.005.013,0,.019l-.023.023s-.008.009,0,.016l.023.023s.01,0,.015,0l.025-.025c.005-.005.009,0,.015,0l.028.028c.008.008,0,.012,0,.017l-.027.027s-.006.007,0,.013l.022.022c.006.006.009,0,.014,0l.025-.025c.005-.005.009-.005.013,0l.026.026a.014.014,0,0,1,0,.022l-.064.065C1098.27,791.346,1098.251,791.34,1098.208,791.3Z" transform="translate(-1031.777 1314.096)" fill="none" stroke="#000" stroke-miterlimit="2.414" stroke-width="0.119"/>
    <path id="Tracé_5188" data-name="Tracé 5188" d="M1078.315,769.574h3.576v2.832a1.788,1.788,0,1,1-3.576,0Z" transform="translate(-1015.505 1331.785)" fill="#fff" fill-rule="evenodd"/>
    <path id="Tracé_5189" data-name="Tracé 5189" d="M1086.307,772.077h.8v.594a.4.4,0,1,1-.8,0Z" transform="translate(-1022.088 1329.723)" fill="#039" fill-rule="evenodd"/>
    <path id="Tracé_5190" data-name="Tracé 5190" d="M1087,773.323a.075.075,0,1,1-.075.075.075.075,0,0,1,.075-.075m.219-.215a.075.075,0,1,1-.075.075.075.075,0,0,1,.075-.075m-.219-.215a.075.075,0,1,1-.075.075.075.075,0,0,1,.075-.075m.437,0a.075.075,0,1,1-.075.075.075.075,0,0,1,.075-.075m0,.43a.075.075,0,1,1-.075.075.075.075,0,0,1,.075-.075" transform="translate(-1022.594 1329.051)" fill="#fff" fill-rule="evenodd"/>
    <path id="Tracé_5191" data-name="Tracé 5191" d="M1086.307,779.836h.8v.594a.4.4,0,0,1-.8,0Z" transform="translate(-1022.088 1323.333)" fill="#039" fill-rule="evenodd"/>
    <path id="Tracé_5192" data-name="Tracé 5192" d="M1087,781.081a.075.075,0,1,1-.075.075.075.075,0,0,1,.075-.075m.219-.215a.075.075,0,1,1-.075.075.075.075,0,0,1,.075-.075m-.219-.215a.075.075,0,1,1-.075.075.075.075,0,0,1,.075-.075m.437,0a.075.075,0,1,1-.075.075.075.075,0,0,1,.075-.075m0,.43a.075.075,0,1,1-.075.075.075.075,0,0,1,.075-.075" transform="translate(-1022.594 1322.661)" fill="#fff" fill-rule="evenodd"/>
    <path id="Tracé_5193" data-name="Tracé 5193" d="M1080.094,779.836h.8v.594a.4.4,0,1,1-.8,0Z" transform="translate(-1016.971 1323.333)" fill="#039" fill-rule="evenodd"/>
    <path id="Tracé_5194" data-name="Tracé 5194" d="M1080.784,781.081a.075.075,0,1,1-.075.075.075.075,0,0,1,.075-.075m.219-.215a.075.075,0,1,1-.075.075.075.075,0,0,1,.075-.075m-.219-.215a.075.075,0,1,1-.075.075.075.075,0,0,1,.075-.075m.437,0a.075.075,0,1,1-.075.075.075.075,0,0,1,.075-.075m0,.43a.075.075,0,1,1-.075.075.075.075,0,0,1,.075-.075" transform="translate(-1017.477 1322.661)" fill="#fff" fill-rule="evenodd"/>
    <path id="Tracé_5195" data-name="Tracé 5195" d="M1092.49,779.836h.8v.594a.4.4,0,0,1-.8,0Z" transform="translate(-1027.18 1323.333)" fill="#039" fill-rule="evenodd"/>
    <path id="Tracé_5196" data-name="Tracé 5196" d="M1093.181,781.081a.075.075,0,1,1-.075.075.075.075,0,0,1,.075-.075m.219-.215a.075.075,0,1,1-.075.075.075.075,0,0,1,.075-.075m-.219-.215a.075.075,0,1,1-.075.075.075.075,0,0,1,.075-.075m.437,0a.075.075,0,1,1-.075.075.075.075,0,0,1,.075-.075m0,.43a.075.075,0,1,1-.075.075.075.075,0,0,1,.075-.075" transform="translate(-1027.687 1322.661)" fill="#fff" fill-rule="evenodd"/>
    <path id="Tracé_5197" data-name="Tracé 5197" d="M1086.307,787.476h.8v.594a.4.4,0,0,1-.8,0Z" transform="translate(-1022.088 1317.04)" fill="#039" fill-rule="evenodd"/>
    <path id="Tracé_5198" data-name="Tracé 5198" d="M1087,788.721a.075.075,0,1,1-.075.075.075.075,0,0,1,.075-.075m.219-.215a.075.075,0,1,1-.075.075.075.075,0,0,1,.075-.075m-.219-.215a.075.075,0,1,1-.075.075.075.075,0,0,1,.075-.075m.437,0a.075.075,0,1,1-.075.075.075.075,0,0,1,.075-.075m0,.43a.075.075,0,1,1-.075.075.075.075,0,0,1,.075-.075" transform="translate(-1022.594 1316.369)" fill="#fff" fill-rule="evenodd"/>
  </g>
</svg>
