<svg xmlns="http://www.w3.org/2000/svg" width="30" height="20" viewBox="0 0 30 20">
  <g id="slo" transform="translate(-54 -2723.582)">
    <rect id="Rectangle_1427" data-name="Rectangle 1427" width="30" height="6.667" transform="translate(54 2723.582)" fill="#f0f0f0"/>
    <rect id="Rectangle_1428" data-name="Rectangle 1428" width="30" height="6.667" transform="translate(54 2730.249)" fill="#0456bd"/>
    <rect id="Rectangle_1429" data-name="Rectangle 1429" width="30" height="6.667" transform="translate(54 2736.916)" fill="#ff1612"/>
    <path id="Tracé_3279" data-name="Tracé 3279" d="M650.046,932.94a4.092,4.092,0,0,0,1.683-1.178,3.224,3.224,0,0,0,.717-1.773c.052-.55.1-1.147.139-1.7.055-.763.094-1.422.112-1.737.005-.091.009-.2.011-.23a6.717,6.717,0,0,0-5.323,0c0,.031.006.139.011.23.017.316.057.974.112,1.737.039.549.087,1.146.139,1.7a3.225,3.225,0,0,0,.717,1.773,4.09,4.09,0,0,0,1.683,1.178" transform="translate(-587.194 1801.103)" fill="#0456bd" fill-rule="evenodd"/>
    <path id="Tracé_3280" data-name="Tracé 3280" d="M652.451,942.19a.809.809,0,0,0,.352-.1.615.615,0,0,1,.352-.095.828.828,0,0,1,.37.1.69.69,0,0,0,.377.1.8.8,0,0,0,.552-.291,1.3,1.3,0,0,0,.144-.426l-1.072-1.431-.429.573-.646-1.284-.646,1.284-.429-.573L650.3,941.48a1.3,1.3,0,0,0,.144.426.794.794,0,0,0,.552.291.691.691,0,0,0,.377-.1.828.828,0,0,1,.37-.1.615.615,0,0,1,.352.095.809.809,0,0,0,.352.1m0,1.689a3.268,3.268,0,0,1-1.5-1.065.884.884,0,0,0,.451-.107.692.692,0,0,1,.618-.028.739.739,0,0,0,.852,0,.692.692,0,0,1,.618.028.886.886,0,0,0,.452.107,3.269,3.269,0,0,1-1.5,1.065m0-1.48a.613.613,0,0,1-.333-.086.711.711,0,0,0-.748-.008.567.567,0,0,1-.326.1.952.952,0,0,1-.463-.16,2.457,2.457,0,0,0,.172.3.809.809,0,0,0,.37.046.627.627,0,0,0,.3-.108.561.561,0,0,1,.325-.084.8.8,0,0,1,.371.117.68.68,0,0,0,.665,0,.8.8,0,0,1,.371-.117.56.56,0,0,1,.325.084.629.629,0,0,0,.3.108.809.809,0,0,0,.37-.046,2.44,2.44,0,0,0,.171-.3.952.952,0,0,1-.462.16.568.568,0,0,1-.326-.1.71.71,0,0,0-.748.008.613.613,0,0,1-.333.086" transform="translate(-589.598 1789.933)" fill="#f4f4f4" fill-rule="evenodd"/>
    <path id="Tracé_3281" data-name="Tracé 3281" d="M657.715,928.878l.048.154.157-.035-.109.119.109.119-.157-.035-.048.154-.048-.154-.158.035.109-.119-.109-.119.158.035ZM656.9,927.8l.049.154.157-.035-.109.119.109.119-.157-.035-.049.154-.048-.154-.158.035.109-.119-.109-.119.158.035Zm1.607,0,.048.154.158-.035-.109.119.109.119-.158-.035-.048.154-.048-.154-.158.035.109-.119-.109-.119.158.035Z" transform="translate(-594.862 1799.436)" fill="#fedc36" fill-rule="evenodd"/>
    <path id="Tracé_3282" data-name="Tracé 3282" d="M651.989,928.969c0,.034,0,.093-.012.224-.019.339-.057.965-.108,1.673-.039.541-.086,1.136-.14,1.7a3.421,3.421,0,0,1-.761,1.88,4.241,4.241,0,0,1-1.624,1.178c-.07.03-.141.06-.212.085-.072-.025-.143-.055-.212-.085a4.24,4.24,0,0,1-1.624-1.178,3.421,3.421,0,0,1-.761-1.88c-.054-.565-.1-1.16-.14-1.7-.051-.708-.089-1.334-.108-1.673-.007-.131-.011-.19-.012-.224l.2-.087c0,.027.006.139.011.232.018.315.057.974.112,1.737.039.549.087,1.146.139,1.7a3.223,3.223,0,0,0,.717,1.773,1.791,1.791,0,0,0,3.366,0,3.223,3.223,0,0,0,.717-1.773c.052-.55.1-1.147.139-1.7.055-.763.094-1.422.112-1.737.005-.093.01-.2.011-.232Z" transform="translate(-586.279 1798.545)" fill="#ff1612"/>
  </g>
</svg>
