<svg xmlns="http://www.w3.org/2000/svg" width="30" height="20" viewBox="0 0 30 20">
  <g id="slo" transform="translate(-178.416 -2402)">
    <rect id="Rectangle_1424" data-name="Rectangle 1424" width="30" height="6.667" transform="translate(178.416 2408.667)" fill="#0456bd"/>
    <rect id="Rectangle_1425" data-name="Rectangle 1425" width="30" height="6.667" transform="translate(178.416 2415.333)" fill="#ff1612"/>
    <rect id="Rectangle_1426" data-name="Rectangle 1426" width="30" height="6.667" transform="translate(178.416 2402)" fill="#f0f0f0"/>
    <path id="Tracé_3274" data-name="Tracé 3274" d="M450.087,937.341s.167,3.425.132,4.807-1.136,3.579-3.9,4.917c-2.767-1.338-3.867-3.535-3.9-4.917s.132-4.807.132-4.807h7.541Z" transform="translate(-257.957 1469.996)" fill="#ff1612" fill-rule="evenodd"/>
    <path id="Tracé_3275" data-name="Tracé 3275" d="M450.087,937.341s.167,3.425.132,4.807-1.136,3.579-3.9,4.917c-2.767-1.338-3.867-3.535-3.9-4.917s.132-4.807.132-4.807h7.541Z" transform="translate(-257.957 1469.996)" fill="none" stroke="#f4f4f4" stroke-miterlimit="2.414" stroke-width="1.797"/>
    <path id="Tracé_3276" data-name="Tracé 3276" d="M453.809,940.109c.126,0,.538-.042.538-.042a7.937,7.937,0,0,0-.216,1.453,5.047,5.047,0,0,0,1.554-.216,6.188,6.188,0,0,0-.008,1.106,4.942,4.942,0,0,0-1.557-.225v1.032a6.126,6.126,0,0,0,1.969-.219,7.21,7.21,0,0,0,0,1.121,5.207,5.207,0,0,0-1.956-.216v1.488a.864.864,0,0,0-.319-.064h-.023a.875.875,0,0,0-.33.073v-1.5a5.208,5.208,0,0,0-1.956.216,7.21,7.21,0,0,0,0-1.121,6.126,6.126,0,0,0,1.969.219v-1.032a4.942,4.942,0,0,0-1.557.225,6.188,6.188,0,0,0-.008-1.106,5.047,5.047,0,0,0,1.554.216,7.937,7.937,0,0,0-.216-1.453s.412.042.538.042Z" transform="translate(-265.45 1467.751)" fill="#f4f4f4" fill-rule="evenodd"/>
    <path id="Tracé_3277" data-name="Tracé 3277" d="M453.664,971.158c-.173-.272-.506-.7-.9-.7a1.082,1.082,0,0,0-.872.484s-.425-1.052-1.2-1.052-1.2,1.052-1.2,1.052a1.083,1.083,0,0,0-.872-.484c-.393,0-.727.427-.9.7q.154.236.341.473a7.626,7.626,0,0,0,2.629,2.067,7.625,7.625,0,0,0,2.629-2.067q.187-.236.341-.473" transform="translate(-262.336 1443.188)" fill="#0456bd" fill-rule="evenodd"/>
  </g>
</svg>
