<svg xmlns="http://www.w3.org/2000/svg" width="30" height="20" viewBox="0 0 30 20">
  <g id="uk" transform="translate(7330.11 -2315.085)">
    <path id="Tracé_4393" data-name="Tracé 4393" d="M207.806,1088.5h8.811v5.874Zm13.767,0h8.811l-8.811,5.874Zm12.522,2.474v4.222h-6.333Zm0,10.83v4.222l-6.333-4.222Zm-3.711,6.7h-8.811v-5.874Zm-13.767,0h-8.811l8.811-5.874Zm-12.522-2.474v-4.222h6.333Zm0-10.83v-4.222l6.333,4.222Z" transform="translate(-7534.204 1226.583)" fill="#0437a0" fill-rule="evenodd"/>
    <path id="Tracé_4394" data-name="Tracé 4394" d="M234.095,1106.028l-6.333-4.222h6.333V1095.2h-6.333l6.333-4.222V1088.5h-3.711l-8.811,5.874V1088.5h-4.956v5.874l-8.811-5.874h-3.711v2.474l6.333,4.222h-6.333v6.608h6.333l-6.333,4.222v2.474h3.711l8.811-5.874v5.874h4.956v-5.874l8.811,5.874h3.711Z" transform="translate(-7534.204 1226.583)" fill="#f4f4f4"/>
    <path id="Tracé_4395" data-name="Tracé 4395" d="M220.641,1088.5v7.937h13.453v4.125H220.641v7.937h-3.094v-7.937H204.094v-4.125h13.453V1088.5h3.094Zm13.453,19.072-8.652-5.768h-2.783l10.044,6.7h1.392Zm-8.652-12.376,8.652-5.768v-.928H232.7l-10.044,6.7Zm-9.912,0-10.044-6.7h-1.392v.928l8.653,5.768Zm-2.783,6.608-8.653,5.768v.928h1.392l10.044-6.7Z" transform="translate(-7534.204 1226.583)" fill="#ff1612" fill-rule="evenodd"/>
  </g>
</svg>
